<svg width="24" height="24" viewBox="0 0 24 24" fill="none" xmlns="http://www.w3.org/2000/svg">
<path d="M18.36 7.36842C18.8549 7.36842 19.256 7.53684 19.5717 7.86526C19.896 8.21053 20.0667 8.58947 20.0667 9.05263V18.3158C20.0667 18.7789 19.896 19.1579 19.5717 19.5032C19.256 19.8316 18.8549 20 18.36 20H4.70667C4.21173 20 3.81067 19.8316 3.49493 19.5032C3.17067 19.1579 3 18.7789 3 18.3158V9.05263C3 8.58947 3.17067 8.21053 3.49493 7.86526C3.81067 7.53684 4.21173 7.36842 4.70667 7.36842H8.12V5.68421C8.12 5.19579 8.29067 4.8 8.61493 4.48842C8.93067 4.16842 9.33173 4 9.82667 4H13.24C13.7349 4 14.136 4.16842 14.4517 4.48842C14.776 4.8 14.9467 5.19579 14.9467 5.68421V7.36842H18.36ZM4.70667 9.05263V18.3158H18.36V9.05263H4.70667ZM13.24 7.36842V5.68421H9.82667V7.36842H13.24Z" fill="#898A8D"/>
</svg>
