<svg width="24" height="24" viewBox="0 0 24 24" fill="none" xmlns="http://www.w3.org/2000/svg">
<path d="M19.36 7.36842C19.8549 7.36842 20.256 7.53684 20.5717 7.86526C20.896 8.21053 21.0667 8.58947 21.0667 9.05263V18.3158C21.0667 18.7789 20.896 19.1579 20.5717 19.5032C20.256 19.8316 19.8549 20 19.36 20H5.70667C5.21173 20 4.81067 19.8316 4.49493 19.5032C4.17067 19.1579 4 18.7789 4 18.3158V9.05263C4 8.58947 4.17067 8.21053 4.49493 7.86526C4.81067 7.53684 5.21173 7.36842 5.70667 7.36842H9.12V5.68421C9.12 5.19579 9.29067 4.8 9.61493 4.48842C9.93067 4.16842 10.3317 4 10.8267 4H14.24C14.7349 4 15.136 4.16842 15.4517 4.48842C15.776 4.8 15.9467 5.19579 15.9467 5.68421V7.36842H19.36ZM5.70667 9.05263V18.3158H19.36V9.05263H5.70667ZM14.24 7.36842V5.68421H10.8267V7.36842H14.24Z" fill="#2B3467"/>
</svg>
