<svg width="24" height="24" viewBox="0 0 24 24" fill="none" xmlns="http://www.w3.org/2000/svg">
<path d="M11.9998 7.6C12.505 7.6 12.9895 7.81071 13.3467 8.18579C13.7039 8.56086 13.9046 9.06957 13.9046 9.6C13.9046 9.86264 13.8553 10.1227 13.7596 10.3654C13.6639 10.608 13.5236 10.8285 13.3467 11.0142C13.1698 11.1999 12.9599 11.3472 12.7288 11.4478C12.4977 11.5483 12.25 11.6 11.9998 11.6C11.4947 11.6 11.0102 11.3893 10.653 11.0142C10.2958 10.6391 10.0951 10.1304 10.0951 9.6C10.0951 9.06957 10.2958 8.56086 10.653 8.18579C11.0102 7.81071 11.4947 7.6 11.9998 7.6ZM11.9998 4C13.4143 4 14.7709 4.59 15.7711 5.6402C16.7713 6.69041 17.3332 8.11479 17.3332 9.6C17.3332 13.8 11.9998 20 11.9998 20C11.9998 20 6.6665 13.8 6.6665 9.6C6.6665 8.11479 7.22841 6.69041 8.2286 5.6402C9.2288 4.59 10.5853 4 11.9998 4ZM11.9998 5.6C10.9895 5.6 10.0205 6.02143 9.3061 6.77157C8.59167 7.52172 8.19031 8.53913 8.19031 9.6C8.19031 10.4 8.19031 12 11.9998 17.368C15.8094 12 15.8094 10.4 15.8094 9.6C15.8094 8.53913 15.408 7.52172 14.6936 6.77157C13.9792 6.02143 13.0102 5.6 11.9998 5.6Z" fill="#2B3467"/>
</svg>
