<svg width="24" height="24" viewBox="0 0 24 24" fill="none" xmlns="http://www.w3.org/2000/svg">
<path d="M12 7.6C12.5052 7.6 12.9896 7.81071 13.3469 8.18579C13.7041 8.56086 13.9048 9.06957 13.9048 9.6C13.9048 9.86264 13.8555 10.1227 13.7598 10.3654C13.664 10.608 13.5237 10.8285 13.3469 11.0142C13.17 11.1999 12.96 11.3472 12.7289 11.4478C12.4978 11.5483 12.2501 11.6 12 11.6C11.4948 11.6 11.0103 11.3893 10.6531 11.0142C10.2959 10.6391 10.0952 10.1304 10.0952 9.6C10.0952 9.06957 10.2959 8.56086 10.6531 8.18579C11.0103 7.81071 11.4948 7.6 12 7.6ZM12 4C13.4145 4 14.771 4.59 15.7712 5.6402C16.7714 6.69041 17.3333 8.11479 17.3333 9.6C17.3333 13.8 12 20 12 20C12 20 6.66666 13.8 6.66666 9.6C6.66666 8.11479 7.22856 6.69041 8.22875 5.6402C9.22895 4.59 10.5855 4 12 4ZM12 5.6C10.9896 5.6 10.0207 6.02143 9.30625 6.77157C8.59183 7.52172 8.19047 8.53913 8.19047 9.6C8.19047 10.4 8.19047 12 12 17.368C15.8095 12 15.8095 10.4 15.8095 9.6C15.8095 8.53913 15.4082 7.52172 14.6937 6.77157C13.9793 6.02143 13.0103 5.6 12 5.6Z" fill="#898A8D"/>
</svg>
