<svg width="36" height="36" viewBox="0 0 36 36" fill="none" xmlns="http://www.w3.org/2000/svg">
<rect width="36" height="36" rx="18" fill="#2B3467"/>
<path d="M18 13.6C18.5052 13.6 18.9896 13.8107 19.3469 14.1858C19.7041 14.5609 19.9048 15.0696 19.9048 15.6C19.9048 15.8626 19.8555 16.1227 19.7598 16.3654C19.664 16.608 19.5237 16.8285 19.3469 17.0142C19.17 17.1999 18.96 17.3472 18.7289 17.4478C18.4978 17.5483 18.2501 17.6 18 17.6C17.4948 17.6 17.0103 17.3893 16.6531 17.0142C16.2959 16.6391 16.0952 16.1304 16.0952 15.6C16.0952 15.0696 16.2959 14.5609 16.6531 14.1858C17.0103 13.8107 17.4948 13.6 18 13.6ZM18 10C19.4145 10 20.771 10.59 21.7712 11.6402C22.7714 12.6904 23.3333 14.1148 23.3333 15.6C23.3333 19.8 18 26 18 26C18 26 12.6667 19.8 12.6667 15.6C12.6667 14.1148 13.2286 12.6904 14.2288 11.6402C15.2289 10.59 16.5855 10 18 10ZM18 11.6C16.9896 11.6 16.0207 12.0214 15.3062 12.7716C14.5918 13.5217 14.1905 14.5391 14.1905 15.6C14.1905 16.4 14.1905 18 18 23.368C21.8095 18 21.8095 16.4 21.8095 15.6C21.8095 14.5391 21.4082 13.5217 20.6937 12.7716C19.9793 12.0214 19.0103 11.6 18 11.6Z" fill="white"/>
</svg>
