<svg width="36" height="36" viewBox="0 0 36 36" fill="none" xmlns="http://www.w3.org/2000/svg">
<rect width="36" height="36" rx="18" fill="#2B3467"/>
<path d="M24.8267 13.3684C25.3216 13.3684 25.7227 13.5368 26.0384 13.8653C26.3627 14.2105 26.5333 14.5895 26.5333 15.0526V24.3158C26.5333 24.7789 26.3627 25.1579 26.0384 25.5032C25.7227 25.8316 25.3216 26 24.8267 26H11.1733C10.6784 26 10.2773 25.8316 9.96161 25.5032C9.63734 25.1579 9.46667 24.7789 9.46667 24.3158V15.0526C9.46667 14.5895 9.63734 14.2105 9.96161 13.8653C10.2773 13.5368 10.6784 13.3684 11.1733 13.3684H14.5867V11.6842C14.5867 11.1958 14.7573 10.8 15.0816 10.4884C15.3973 10.1684 15.7984 10 16.2933 10H19.7067C20.2016 10 20.6027 10.1684 20.9184 10.4884C21.2427 10.8 21.4133 11.1958 21.4133 11.6842V13.3684H24.8267ZM11.1733 15.0526V24.3158H24.8267V15.0526H11.1733ZM19.7067 13.3684V11.6842H16.2933V13.3684H19.7067Z" fill="white"/>
</svg>
