<svg width="25" height="24" viewBox="0 0 25 24" fill="none" xmlns="http://www.w3.org/2000/svg">
<path d="M19.21 19.5C18.38 20.74 17.5 21.95 16.16 21.97C14.82 22 14.39 21.18 12.87 21.18C11.34 21.18 10.87 21.95 9.6 22C8.29 22.05 7.3 20.68 6.46 19.47C4.75 17 3.44 12.45 5.2 9.39C6.07 7.87 7.63 6.91 9.32 6.88C10.6 6.86 11.82 7.75 12.61 7.75C13.39 7.75 14.87 6.68 16.42 6.84C17.07 6.87 18.89 7.1 20.06 8.82C19.97 8.88 17.89 10.1 17.91 12.63C17.94 15.65 20.56 16.66 20.59 16.67C20.56 16.74 20.17 18.11 19.21 19.5ZM13.5 3.5C14.23 2.67 15.44 2.04 16.44 2C16.57 3.17 16.1 4.35 15.4 5.19C14.71 6.04 13.57 6.7 12.45 6.61C12.3 5.46 12.86 4.26 13.5 3.5Z" fill="#161616"/>
</svg>
