<svg width="19" height="17" viewBox="0 0 19 17" fill="none" xmlns="http://www.w3.org/2000/svg">
<path d="M18.4799 14.1781C18.4799 14.6025 18.3113 15.0094 18.0112 15.3095C17.7112 15.6096 17.3042 15.7781 16.8799 15.7781H2.47988C2.05554 15.7781 1.64857 15.6096 1.34851 15.3095C1.04845 15.0094 0.879883 14.6025 0.879883 14.1781V5.37812C0.879883 4.95378 1.04845 4.54681 1.34851 4.24675C1.64857 3.94669 2.05554 3.77812 2.47988 3.77812H5.67988L7.27988 1.37812H12.0799L13.6799 3.77812H16.8799C17.3042 3.77812 17.7112 3.94669 18.0112 4.24675C18.3113 4.54681 18.4799 4.95378 18.4799 5.37812V14.1781Z" stroke="#2B3467" stroke-linecap="round" stroke-linejoin="round"/>
<path d="M9.67988 12.5781C11.4472 12.5781 12.8799 11.1454 12.8799 9.37812C12.8799 7.61081 11.4472 6.17812 9.67988 6.17812C7.91257 6.17812 6.47988 7.61081 6.47988 9.37812C6.47988 11.1454 7.91257 12.5781 9.67988 12.5781Z" stroke="#2B3467" stroke-linecap="round" stroke-linejoin="round"/>
</svg>
