<svg width="24" height="24" viewBox="0 0 24 24" fill="none" xmlns="http://www.w3.org/2000/svg">
<path d="M8.80143 20C8.3613 20 7.98438 19.8432 7.67069 19.5296C7.357 19.216 7.20042 18.8395 7.20095 18.4C7.20095 17.96 7.3578 17.5832 7.67149 17.2696C7.98518 16.956 8.36183 16.7995 8.80143 16.8C9.24156 16.8 9.61847 16.9568 9.93216 17.2704C10.2459 17.584 10.4024 17.9605 10.4019 18.4C10.4019 18.84 10.2451 19.2168 9.93136 19.5304C9.61767 19.844 9.24102 20.0005 8.80143 20ZM16.8038 20C16.3637 20 15.9868 19.8432 15.6731 19.5296C15.3594 19.216 15.2028 18.8395 15.2033 18.4C15.2033 17.96 15.3602 17.5832 15.6739 17.2696C15.9876 16.956 16.3642 16.7995 16.8038 16.8C17.2439 16.8 17.6209 16.9568 17.9345 17.2704C18.2482 17.584 18.4048 17.9605 18.4043 18.4C18.4043 18.84 18.2474 19.2168 17.9337 19.5304C17.62 19.844 17.2434 20.0005 16.8038 20ZM8.12123 7.2L10.0418 11.2H15.6435L17.8441 7.2H8.12123ZM8.80143 16C8.20125 16 7.74778 15.7365 7.44102 15.2096C7.13427 14.6827 7.12093 14.1595 7.40101 13.64L8.48133 11.68L5.60048 5.6H4.78023C4.5535 5.6 4.36678 5.5232 4.22007 5.3696C4.07336 5.216 4 5.02614 4 4.8C4 4.57334 4.07682 4.3832 4.23047 4.2296C4.38411 4.076 4.57404 3.99947 4.80024 4H6.10062C6.24733 4 6.38738 4.04 6.52075 4.12C6.65412 4.2 6.75415 4.31334 6.82084 4.46L7.361 5.6H19.1645C19.5246 5.6 19.7714 5.73334 19.9047 6C20.0381 6.26667 20.0314 6.54667 19.8847 6.84L17.0439 11.96C16.8972 12.2267 16.7038 12.4333 16.4637 12.58C16.2236 12.7267 15.9502 12.8 15.6435 12.8H9.68169L8.80143 14.4H17.6241C17.8508 14.4 18.0375 14.4768 18.1842 14.6304C18.3309 14.784 18.4043 14.9739 18.4043 15.2C18.4043 15.4267 18.3275 15.6168 18.1738 15.7704C18.0202 15.924 17.8302 16.0005 17.604 16H8.80143Z" fill="#EA455F"/>
</svg>
