<svg width="24" height="24" viewBox="0 0 24 24" fill="none" xmlns="http://www.w3.org/2000/svg">
<path d="M8.80135 20C8.36122 20 7.98431 19.8432 7.67061 19.5296C7.35692 19.216 7.20034 18.8395 7.20087 18.4C7.20087 17.96 7.35772 17.5832 7.67141 17.2696C7.98511 16.956 8.36175 16.7995 8.80135 16.8C9.24148 16.8 9.61839 16.9568 9.93209 17.2704C10.2458 17.584 10.4024 17.9605 10.4018 18.4C10.4018 18.84 10.245 19.2168 9.93129 19.5304C9.61759 19.844 9.24095 20.0005 8.80135 20ZM16.8037 20C16.3636 20 15.9867 19.8432 15.673 19.5296C15.3593 19.216 15.2027 18.8395 15.2033 18.4C15.2033 17.96 15.3601 17.5832 15.6738 17.2696C15.9875 16.956 16.3641 16.7995 16.8037 16.8C17.2439 16.8 17.6208 16.9568 17.9345 17.2704C18.2482 17.584 18.4047 17.9605 18.4042 18.4C18.4042 18.84 18.2474 19.2168 17.9337 19.5304C17.62 19.844 17.2433 20.0005 16.8037 20ZM8.12115 7.2L10.0417 11.2H15.6434L17.844 7.2H8.12115ZM8.80135 16C8.20117 16 7.7477 15.7365 7.44095 15.2096C7.13419 14.6827 7.12085 14.1595 7.40093 13.64L8.48125 11.68L5.6004 5.6H4.78015C4.55342 5.6 4.3667 5.5232 4.21999 5.3696C4.07328 5.216 3.99992 5.02614 3.99992 4.8C3.99992 4.57334 4.07674 4.3832 4.23039 4.2296C4.38404 4.076 4.57396 3.99947 4.80016 4H6.10055C6.24726 4 6.3873 4.04 6.52067 4.12C6.65404 4.2 6.75407 4.31334 6.82076 4.46L7.36092 5.6H19.1644C19.5245 5.6 19.7713 5.73334 19.9047 6C20.038 6.26667 20.0314 6.54667 19.8846 6.84L17.0438 11.96C16.8971 12.2267 16.7037 12.4333 16.4636 12.58C16.2236 12.7267 15.9501 12.8 15.6434 12.8H9.68161L8.80135 14.4H17.624C17.8507 14.4 18.0374 14.4768 18.1841 14.6304C18.3309 14.784 18.4042 14.9739 18.4042 15.2C18.4042 15.4267 18.3274 15.6168 18.1737 15.7704C18.0201 15.924 17.8302 16.0005 17.604 16H8.80135Z" fill="#898A8D"/>
</svg>
