<svg width="24" height="24" viewBox="0 0 24 24" fill="none" xmlns="http://www.w3.org/2000/svg">
<path d="M21.076 7.61774C21.8724 9.52652 21.4556 11.3212 20.1653 13.5273C18.875 15.736 16.475 18.3935 14.0351 19.3306C12.6598 19.8589 10.3155 19.6598 9.19249 18.805C9.81905 19.2642 10.6846 19.243 11.574 19.0333C12.1395 18.9138 12.7209 18.7094 13.2598 18.4997C15.1342 17.7696 17.7945 15.2343 19.0502 13.0547C20.306 10.8778 20.9113 9.17344 19.7405 6.61158C19.3741 5.8125 18.7317 5.2019 17.9538 4.82227C19.4166 5.44614 20.6459 6.593 21.076 7.61774Z" fill="#EA455F"/>
<path d="M19.7352 6.61146C20.9061 9.17331 20.3007 10.8777 19.0449 13.0546C17.7892 15.2315 15.1289 17.7668 13.2545 18.4995C12.7156 18.7093 12.1342 18.9137 11.5687 19.0331C12.0864 18.911 12.6094 18.7225 13.1006 18.5314C14.9749 17.796 17.6352 15.2527 18.891 13.0679C20.1467 10.883 20.7521 9.17597 19.5812 6.60349C19.0635 5.46194 17.9777 4.70267 16.7405 4.45312C17.152 4.53277 17.5582 4.6602 17.9485 4.82479C18.7264 5.20177 19.3715 5.81502 19.7352 6.61146Z" fill="#EA455F"/>
<path d="M19.5839 6.60388C20.7547 9.17636 20.1494 10.886 18.8936 13.0683C17.6378 15.2531 14.9776 17.7964 13.1032 18.5318C12.612 18.7229 12.089 18.9088 11.5713 19.0335C10.7377 19.2114 9.93587 19.2061 9.34382 18.7734C9.34117 18.7707 9.34117 18.7734 9.34117 18.7734C9.31462 18.7521 9.28807 18.7335 9.26152 18.7123C9.2509 18.7043 9.24028 18.6964 9.22966 18.6858C9.2217 18.6804 9.21639 18.6751 9.20842 18.6672C8.71991 18.192 8.51548 17.5469 8.58717 16.7026C8.74646 16.0097 9.28541 15.3514 10.3102 14.3266C10.3925 14.231 10.4801 14.1355 10.5677 14.0319C11.0908 13.3311 11.3191 12.4364 11.4518 11.2604C11.497 10.8568 11.5315 10.4188 11.566 9.94359C11.5633 9.68342 11.5633 9.35954 11.574 8.9215C11.574 8.87637 11.574 8.83124 11.574 8.7861C11.5872 8.55514 11.6032 8.31621 11.6191 8.07197C11.6324 7.87552 11.6589 7.68703 11.6961 7.51181C11.6987 7.50119 11.7014 7.48792 11.7041 7.4773C11.8315 7.00475 12.0359 6.56937 12.3173 6.18177C12.9067 5.42516 13.5413 5.03756 14.0112 4.78802C14.4678 4.54909 15.044 4.45617 15.5112 4.40573C15.551 4.40307 15.5909 4.39776 15.6307 4.39511C15.6891 4.39246 15.7475 4.38715 15.8059 4.38449C15.8643 4.38184 15.9227 4.38184 15.9811 4.38184C16.0396 4.38184 16.098 4.38449 16.1564 4.38449C16.1829 4.38449 16.2121 4.38449 16.2387 4.38715C16.2944 4.3898 16.3528 4.39511 16.4112 4.40042C16.5466 4.41369 16.6847 4.43228 16.8228 4.45617C16.8467 4.45882 16.8705 4.46413 16.8918 4.46944C17.2608 4.54378 17.6166 4.66324 17.9458 4.82518C17.5555 4.66059 17.152 4.53316 16.7378 4.45351C17.9777 4.70306 19.0635 5.46498 19.5839 6.60388ZM17.8104 8.63744C17.8104 7.76402 17.1015 7.05254 16.2281 7.05254C15.3546 7.05254 14.6431 7.76136 14.6431 8.63744C14.6431 9.51351 15.3519 10.2197 16.2281 10.2197C17.1042 10.2197 17.8104 9.51086 17.8104 8.63744Z" fill="#EA455F"/>
<path d="M11.5766 8.7832C11.5766 8.82833 11.5766 8.87347 11.5766 8.9186C11.5687 9.35663 11.5687 9.68052 11.5687 9.94068C11.5368 10.4159 11.5023 10.8539 11.4545 11.2575C11.5288 10.6177 11.5501 9.94599 11.5448 9.29292C11.5554 9.12832 11.566 8.95842 11.5766 8.7832Z" fill="#EA455F"/>
<path d="M11.5767 8.78312C11.566 8.95568 11.5554 9.12558 11.5448 9.29283C11.5501 9.94591 11.5315 10.6176 11.4545 11.2574C11.4147 11.6051 11.3563 11.9476 11.274 12.2715C11.2713 12.2927 11.266 12.314 11.2634 12.3379C10.9103 14.2705 8.70933 15.4705 8.59517 16.6439L8.58986 16.6996C8.56862 16.7926 8.55534 16.8828 8.54738 16.9784C8.52879 17.1908 8.54472 17.3899 8.57924 17.5678C8.57924 17.5704 8.57924 17.5704 8.58189 17.5731C8.59782 17.6501 8.61375 17.7191 8.63764 17.7881C8.65357 17.8332 8.6695 17.8784 8.68543 17.9208C8.71198 17.9925 8.74384 18.0589 8.7757 18.12C8.83676 18.2421 8.90579 18.3456 8.9642 18.4279C8.9642 18.4306 8.96686 18.4306 8.96686 18.4306C9.01995 18.5049 9.06774 18.558 9.10226 18.5978C9.12084 18.6164 9.13412 18.6297 9.14208 18.6403C9.14474 18.6429 9.15005 18.6456 9.15005 18.6483C9.1527 18.6509 9.15801 18.6536 9.15801 18.6536C9.19252 18.6907 9.22969 18.7252 9.26686 18.7571C9.27217 18.7651 9.28014 18.7704 9.2881 18.7757C9.3704 18.8553 9.46067 18.9297 9.55891 18.9987C8.1571 18.335 4.91012 15.0776 3.65434 12.9007C2.39856 10.7238 1.99236 8.95302 2.7676 7.07079C3.54283 5.18855 6.4845 3.73374 8.62437 4.67353C10.5465 5.51774 11.5634 6.89823 11.5767 8.78312Z" fill="#EA455F"/>
<path d="M11.4545 11.2578C11.3218 12.4339 11.0934 13.3285 10.5704 14.0294C10.4801 14.1329 10.3952 14.2285 10.3129 14.3241C9.28807 15.3488 8.74912 16.0072 8.58983 16.7001L8.59514 16.6443C8.7093 15.4709 10.9102 14.271 11.2633 12.3383C11.266 12.3144 11.2713 12.2932 11.274 12.2719C11.3563 11.9481 11.4147 11.6082 11.4545 11.2578Z" fill="#EA455F"/>
<path fill-rule="evenodd" clip-rule="evenodd" d="M5.34137 5.16032C4.3046 5.61423 3.46337 6.38798 3.1229 7.21462C2.41194 8.94079 2.75873 10.5811 3.98753 12.7112C4.59261 13.7601 5.69354 15.0926 6.82776 16.2521C7.29292 16.7277 7.75953 17.1698 8.19412 17.5472C8.1653 17.3631 8.15417 17.1606 8.17289 16.9458C8.18216 16.835 8.19786 16.7273 8.22338 16.6156C8.40734 15.8023 9.02838 15.0733 10.0383 14.0679C10.0866 14.0119 10.1372 13.9543 10.1879 13.8965C10.2181 13.8622 10.2482 13.8278 10.2781 13.7937C10.7335 13.1771 10.9511 12.3687 11.0811 11.2172L11.0812 11.2162L11.0813 11.2152C11.1275 10.8249 11.1613 10.3987 11.1928 9.93024C11.1928 9.67245 11.193 9.3502 11.2008 8.91745V8.78679C11.1944 7.91462 10.9577 7.17629 10.5125 6.55968C10.0649 5.93987 9.39071 5.42145 8.47748 5.01978C7.53156 4.60435 6.37526 4.70767 5.34137 5.16032ZM9.38766 18.3422L9.39399 18.3454L9.44069 18.3957C9.46283 18.4195 9.48888 18.444 9.5185 18.4694L9.52438 18.4744L9.53195 18.4795L9.54499 18.4921L9.55815 18.5034L9.56086 18.5074C9.6272 18.5712 9.70072 18.6317 9.78184 18.6887L9.40224 19.3405C9.00758 19.1536 8.51225 18.8007 7.98504 18.3629C7.4519 17.9202 6.86574 17.3736 6.28659 16.7815C5.13293 15.6021 3.98247 14.2175 3.33178 13.0895C2.04902 10.8658 1.5834 8.96462 2.42291 6.92632C2.85768 5.87072 3.8749 4.97595 5.03775 4.46684C6.20347 3.95647 7.58793 3.80228 8.78189 4.32664L8.78207 4.32672C9.78826 4.76925 10.5822 5.36316 11.1262 6.11648C11.6723 6.87275 11.9507 7.76799 11.9578 8.78279L11.9578 8.78412V8.92429L11.9578 8.92773C11.9499 9.36215 11.9499 9.68318 11.9499 9.94293V9.95561L11.949 9.96825C11.9171 10.4449 11.8821 10.8902 11.8332 11.3032C11.6985 12.4963 11.4612 13.4741 10.8765 14.2577L10.8679 14.2692L10.8584 14.28C10.8213 14.3226 10.7864 14.3624 10.7526 14.4008C10.7009 14.4597 10.6519 14.5154 10.6024 14.573L10.5929 14.584L10.5825 14.5943C9.54373 15.6277 9.09049 16.2132 8.96172 16.7828L8.96162 16.7832L8.96151 16.7837C8.94469 16.8573 8.9339 16.9297 8.92725 17.0095L8.92718 17.0103L8.92711 17.0111C8.91382 17.1629 8.9221 17.3074 8.94365 17.4402L8.95522 17.4961C8.9703 17.569 8.98223 17.6182 8.99767 17.663C9.01368 17.7084 9.02823 17.7496 9.04251 17.7876L9.04278 17.7883L9.04304 17.7891C9.06196 17.8401 9.086 17.891 9.11394 17.9445L9.11545 17.9474L9.11691 17.9503C9.14792 18.0124 9.18199 18.0693 9.21614 18.1206L9.28018 18.2102C9.31605 18.2604 9.34741 18.2965 9.38036 18.3343C9.38163 18.3358 9.38289 18.3373 9.38416 18.3387C9.38526 18.3398 9.38643 18.341 9.38766 18.3422ZM8.85303 17.3059C8.85262 17.3055 8.85227 17.3052 8.85199 17.3049C8.8511 17.304 8.85104 17.3039 8.85219 17.3051L8.85303 17.3059ZM8.96041 17.5643C8.96048 17.5689 8.96041 17.5706 8.96041 17.5674V17.5643Z" fill="#2B3467"/>
<path fill-rule="evenodd" clip-rule="evenodd" d="M15.9838 4.75704C15.924 4.75704 15.8742 4.7571 15.8258 4.7593C15.8016 4.7604 15.7767 4.76208 15.7467 4.76412L15.745 4.76424C15.7182 4.76607 15.6871 4.76819 15.6552 4.7697C15.6435 4.77055 15.6305 4.77183 15.6113 4.77374L15.6093 4.77394C15.5926 4.77561 15.5707 4.7778 15.5476 4.7795C15.0875 4.82949 14.577 4.91754 14.1903 5.11956C13.7458 5.35573 13.1648 5.71186 12.6226 6.40599C12.3725 6.75179 12.1891 7.1413 12.0736 7.56737C12.0733 7.56853 12.0729 7.57041 12.0723 7.57335C12.0715 7.57693 12.0699 7.58412 12.068 7.59218C12.0352 7.74795 12.0115 7.91678 11.9995 8.0937C11.9972 8.1279 11.995 8.16194 11.9928 8.19583C11.9791 8.40465 11.9659 8.6075 11.9545 8.80451L11.9545 8.8051L11.9545 8.80569C11.9441 8.97652 11.9338 9.14236 11.9234 9.30321C11.9284 9.96132 11.9067 10.6447 11.8305 11.3007L11.8304 11.3017L11.8303 11.3026C11.7871 11.6587 11.7276 12.0079 11.6458 12.3441C11.6454 12.3465 11.6451 12.3487 11.6447 12.3508C11.6434 12.3588 11.6418 12.367 11.6411 12.3711C11.64 12.3771 11.6396 12.3797 11.6395 12.3804L11.6381 12.3925L11.6357 12.4056C11.4381 13.4873 10.7285 14.3416 10.1229 15.0264C10.0612 15.0961 10.0008 15.1638 9.94202 15.2297C9.70137 15.4996 9.48676 15.7403 9.31359 15.974C9.09707 16.2662 8.98828 16.4934 8.96924 16.683C8.96922 16.6832 8.9692 16.6834 8.96918 16.6836L8.96436 16.734C8.96431 16.7346 8.96426 16.7353 8.9642 16.7359C8.90062 17.4891 9.08145 18.0088 9.46212 18.3851L9.47084 18.3909L9.48894 18.409L9.49339 18.4124L9.498 18.4161C9.50592 18.4224 9.51451 18.4289 9.52849 18.4394L9.52985 18.4404C9.53451 18.4439 9.53984 18.4479 9.54563 18.4523C9.55597 18.4588 9.5652 18.4653 9.57329 18.4715C10.0309 18.802 10.6921 18.8334 11.4924 18.6627L11.4927 18.6626L11.4931 18.6625C12.0279 18.5495 12.5865 18.3541 13.1167 18.1467L13.1168 18.1467C13.9884 17.806 15.0805 17.0265 16.1219 16.0432C17.1586 15.0641 18.1119 13.9143 18.7171 12.8652C19.3402 11.7849 19.7757 10.8645 19.9263 9.91766C20.0747 8.98416 19.9506 7.99301 19.3911 6.76879C19.0651 6.05795 18.4906 5.50763 17.7825 5.16203L17.7819 5.16177L17.7814 5.16151C17.4828 5.01461 17.1582 4.90537 16.8197 4.83719L16.8112 4.83546L16.8027 4.83334C16.7955 4.83154 16.7904 4.8304 16.7867 4.82966C16.7846 4.82924 16.7834 4.82905 16.7831 4.82899C16.783 4.82898 16.7829 4.82897 16.7829 4.82897L16.7722 4.82778L16.7609 4.82582C16.6325 4.8036 16.5041 4.7863 16.3783 4.77394C16.3188 4.76854 16.2692 4.7641 16.2234 4.76192L16.2135 4.76145L16.2037 4.76047C16.2037 4.76047 16.2027 4.76037 16.2005 4.76025C16.1983 4.76013 16.1952 4.76001 16.1912 4.75991C16.1825 4.75971 16.173 4.75969 16.1591 4.75969C16.1255 4.75969 16.0927 4.75894 16.0646 4.7583L16.0628 4.75826C16.0329 4.75758 16.008 4.75704 15.9838 4.75704ZM8.94201 18.9354C8.35487 18.3627 8.13141 17.596 8.21004 16.6699L8.21021 16.668L8.21577 16.6096L8.21585 16.6088C8.25541 16.2105 8.46554 15.8469 8.70534 15.5233C8.90103 15.2592 9.14515 14.9856 9.38781 14.7137C9.44409 14.6506 9.50029 14.5876 9.55579 14.5248C10.1658 13.8351 10.7311 13.126 10.8892 12.2795C10.8917 12.2607 10.8946 12.245 10.8962 12.2361L10.8963 12.2356C10.8979 12.2265 10.8985 12.2235 10.8986 12.223C10.8986 12.2229 10.8986 12.2229 10.8986 12.2229L10.9011 12.2023L10.9064 12.1808C10.9817 11.8748 11.0376 11.5507 11.0787 11.2124C11.1505 10.5936 11.1715 9.93905 11.1663 9.29558L11.1662 9.28184L11.1671 9.26813C11.1776 9.10425 11.1882 8.93505 11.1988 8.76051C11.2103 8.56045 11.2238 8.35445 11.2374 8.14604C11.2396 8.11209 11.2419 8.07808 11.2441 8.04402L11.2441 8.04358L11.2441 8.04313C11.2586 7.82927 11.2875 7.62304 11.3285 7.42995L11.3299 7.42329L11.3315 7.41675C11.3315 7.41702 11.3318 7.41587 11.3333 7.40913L11.3335 7.4081C11.3346 7.40289 11.3369 7.39251 11.3395 7.38217L11.3404 7.37879L11.3413 7.37543C11.4801 6.86053 11.7039 6.38278 12.0137 5.95606L12.0175 5.95089L12.0214 5.94584C12.6565 5.13064 13.3423 4.71275 13.8363 4.45039L13.8374 4.44985L13.8384 4.44931C14.3629 4.17487 15.0011 4.07705 15.4733 4.02608L15.481 4.02525L15.4887 4.02473C15.5014 4.02389 15.515 4.02256 15.536 4.02046L15.538 4.02026C15.5567 4.01839 15.582 4.01586 15.6082 4.01411L15.6122 4.01385L15.6162 4.01366C15.6404 4.01256 15.6653 4.01088 15.6953 4.00884L15.697 4.00872C15.7251 4.00681 15.7579 4.00457 15.7914 4.00305C15.8585 4 15.9242 4 15.9804 4L15.9838 4C16.0174 4 16.0502 4.00075 16.0783 4.00139L16.08 4.00143C16.11 4.00211 16.1349 4.00265 16.1591 4.00265L16.1632 4.00265C16.1853 4.00263 16.2258 4.0026 16.2678 4.00616C16.3291 4.00931 16.3911 4.01494 16.4446 4.01981L16.4495 4.02026L16.4509 4.02039C16.5924 4.03426 16.7365 4.05355 16.8806 4.07827C16.9192 4.08329 16.9532 4.09084 16.9774 4.09671C17.3739 4.17728 17.7579 4.30632 18.1151 4.48198C18.9624 4.89565 19.6726 5.56637 20.0793 6.45342L20.0795 6.45384C20.6908 7.79135 20.8494 8.93323 20.6739 10.0365C20.5006 11.1266 20.0055 12.1468 19.3728 13.2435C18.7222 14.3713 17.7175 15.5775 16.6416 16.5936C15.5703 17.6053 14.3951 18.4598 13.3924 18.8518C12.8501 19.0639 12.2458 19.2772 11.6497 19.4032C11.0089 19.5398 10.3261 19.587 9.71968 19.3853L9.71967 19.5602L9.10475 19.0683C9.09683 19.0619 9.08825 19.0555 9.07427 19.045L9.07291 19.044C9.06165 19.0355 9.04645 19.0241 9.03041 19.0114C9.02152 19.0048 9.00459 18.9919 8.98514 18.9745C8.9629 18.9566 8.94758 18.941 8.94216 18.9355C8.94211 18.9355 8.94206 18.9354 8.94201 18.9354ZM9.49734 18.4174L9.4971 18.4172C9.49718 18.4173 9.49726 18.4173 9.49734 18.4174Z" fill="#2B3467"/>
<path fill-rule="evenodd" clip-rule="evenodd" d="M16.6656 4.82381L16.812 4.08105C17.2549 4.16622 17.6837 4.30198 18.0956 4.47566L18.096 4.47583C19.6277 5.12395 20.9469 6.33358 21.4227 7.47414C22.285 9.54078 21.8072 11.4675 20.4894 13.7205C19.8291 14.8519 18.8869 16.0939 17.7975 17.1744C16.7107 18.2523 15.4575 19.1892 14.1708 19.6835C13.4121 19.9749 12.419 20.0571 11.4813 19.9626C10.5476 19.8684 9.60249 19.5922 8.96326 19.1057L9.41629 18.4992C9.90149 18.8548 10.6208 18.8686 11.4871 18.6644C11.9782 18.5485 12.4811 18.368 12.9681 18.1785C13.8395 17.8365 14.9315 17.0546 15.9727 16.0681C17.0095 15.0857 17.9628 13.932 18.5681 12.8789C19.1913 11.7946 19.6269 10.8714 19.7776 9.92139C19.9261 8.98473 19.8018 7.99008 19.2423 6.76045C18.7772 5.74565 17.8029 5.0532 16.6656 4.82381ZM20.0771 6.78445C20.3702 7.11445 20.5927 7.45086 20.724 7.76563L20.724 7.76567C21.4546 9.51659 21.0988 11.1791 19.836 13.3383L19.8358 13.3386C19.2085 14.4133 18.3068 15.603 17.2644 16.6369C16.2194 17.6735 15.0526 18.5338 13.8994 18.9768C13.4458 19.151 12.8567 19.2417 12.2349 19.2429C12.5826 19.1346 12.9229 19.0084 13.2432 18.8838L13.2441 18.8834C14.247 18.49 15.4221 17.6326 16.4934 16.6176C17.5693 15.5982 18.5739 14.3879 19.2245 13.2561C19.857 12.1555 20.352 11.1328 20.5253 10.0399C20.6857 9.02788 20.5667 7.98327 20.0771 6.78445Z" fill="#2B3467"/>
<path fill-rule="evenodd" clip-rule="evenodd" d="M16.2281 7.43086C15.5614 7.43086 15.0216 7.97248 15.0216 8.63725C15.0216 9.30077 15.5628 9.84097 16.2281 9.84097C16.8925 9.84097 17.4319 9.3016 17.4319 8.63725C17.4319 7.96941 16.8944 7.43086 16.2281 7.43086ZM14.2646 8.63725C14.2646 7.55517 15.1425 6.67383 16.2281 6.67383C17.3141 6.67383 18.1889 7.55293 18.1889 8.63725C18.1889 9.71974 17.3106 10.598 16.2281 10.598C15.1464 10.598 14.2646 9.72056 14.2646 8.63725Z" fill="#2B3467"/>
</svg>
