<svg width="120" height="121" viewBox="0 0 120 121" xmlns="http://www.w3.org/2000/svg">
<path d="M100 77.9375C94 77.9375 87.5 76.9375 82 74.9375H80.5C79 74.9375 78 75.4375 77 76.4375L66 87.4375C52 79.9375 40 68.4375 33 54.4375L44 43.4375C45.5 41.9375 46 39.9375 45 38.4375C43.5 32.9375 42.5 26.4375 42.5 20.4375C42.5 17.9375 40 15.4375 37.5 15.4375H20C17.5 15.4375 15 17.9375 15 20.4375C15 67.4375 53 105.438 100 105.438C102.5 105.438 105 102.938 105 100.438V82.9375C105 80.4375 102.5 77.9375 100 77.9375ZM25 25.4375H32.5C33 29.9375 34 34.4375 35 38.4375L29 44.4375C27 38.4375 25.5 31.9375 25 25.4375ZM95 95.4375C88.5 94.9375 82 93.4375 76 91.4375L82 85.4375C86 86.4375 90.5 87.4375 95 87.4375V95.4375ZM75 60.4375H85C85 53.8071 82.3661 47.4482 77.6777 42.7598C72.9893 38.0714 66.6304 35.4375 60 35.4375V45.4375C63.9782 45.4375 67.7936 47.0179 70.6066 49.8309C73.4197 52.6439 75 56.4593 75 60.4375ZM95 60.4375H105C105 35.4375 84.85 15.4375 60 15.4375V25.4375C79.3 25.4375 95 41.0875 95 60.4375Z" fill="#D9D9D9"/>
</svg>
