<svg width="159" height="120" viewBox="0 0 159 120" fill="none" xmlns="http://www.w3.org/2000/svg">
<path d="M58.2058 45.2344H47.645V118.9H58.2058V45.2344Z" fill="#F5F5F5"/>
<path d="M83.8518 55.2639H73.291V118.899H83.8518V55.2639Z" fill="#F5F5F5"/>
<path d="M127.458 23.9436V23.3059H123.386V15.7096H117.584V7.47485H115.927V15.7096H110.125V23.3059H106.053V23.9436H103.052V118.899H130.46V23.9436H127.458Z" fill="#F5F5F5"/>
<path d="M140.938 42.3815H139.954H139.191V41.3585H130.201V36.7434H128.906V41.3585H127.689V36.7434H126.394V41.3585H124.179V42.3815H123.417H122.433V43.4052H123.417V118.9H139.954V43.4052H140.938V42.3815Z" fill="#F5F5F5"/>
<path d="M135.677 32.1282H135.236V36.7433H135.677V32.1282Z" fill="#F5F5F5"/>
<path d="M134.823 32.1282H134.382V36.7433H134.823V32.1282Z" fill="#F5F5F5"/>
<path d="M137.938 36.7434H132.121V41.3395H137.938V36.7434Z" fill="#F5F5F5"/>
<path d="M17.8989 42.3815H18.8829H19.6448V41.3585H28.6348V36.7434H29.9297V41.3585H31.1469V36.7434H32.4418V41.3585H34.6566V42.3815H35.4194H36.4034V43.4052H35.4194V118.9H18.8829V43.4052H17.8989V42.3815Z" fill="#F5F5F5"/>
<path d="M23.5997 32.1282H23.1589V36.7433H23.5997V32.1282Z" fill="#F5F5F5"/>
<path d="M24.4547 32.1282H24.0139V36.7433H24.4547V32.1282Z" fill="#F5F5F5"/>
<path d="M26.7155 36.7434H20.8987V41.3395H26.7155V36.7434Z" fill="#F5F5F5"/>
<path d="M100.727 45.2381V35.586H101.733V34.7477H99.7332V31.9908H99.4009V29.9662H99.2224V31.9908H98.4067V28.1736H98.2282V31.9908H97.8951V34.7477H95.9536V33.5523H96.5421V32.952H95.9536V31.7589H96.5421V31.1593H95.9536V29.9662H96.5421V29.3667H95.9536V28.1736H96.5421V27.5732H95.9536V26.3779H94.9072V25.8622H93.4893V19.7184H91.4684V13.0588H90.8901V19.7184H88.8692V25.8622H87.4513V26.3779H86.4049V27.5732H85.8164V28.1736H86.4049V29.3667H85.8164V29.9662H86.4049V31.1593H85.8164V31.7589H86.4049V32.952H85.8164V33.5523H86.4049V34.7477H84.4634V31.9908H84.1303V28.1736H83.9518V31.9908H83.1361V29.9662H82.9576V31.9908H82.6253V34.7477H80.6257V35.586H81.6311V45.2381H78.4109V45.9903H79.1805V118.899H103.178V45.9903H103.948V45.2381H100.727Z" fill="#D9D9D9"/>
<path d="M53.6574 45.528V35.9133H54.6593V35.0787H52.6674V32.3325H52.3369V30.3164H52.1584V32.3325H51.3461V28.5298H51.1684V32.3325H50.837V35.0787H48.9023V33.888H49.4891V33.2907H48.9023V32.1022H49.4891V31.5049H48.9023V30.3164H49.4891V29.7183H48.9023V28.5298H49.4891V27.9325H48.9023V26.7418H47.8611V26.2284H46.4483V20.1089H44.4351V13.4753H43.8594V20.1089H41.8461V26.2284H40.4334V26.7418H39.3921V27.9325H38.8053V28.5298H39.3921V29.7183H38.8053V30.3164H39.3921V31.5049H38.8053V32.1022H39.3921V33.2907H38.8053V33.888H39.3921V35.0787H37.4575V32.3325H37.1261V28.5298H36.9484V32.3325H36.1361V30.3164H35.9576V32.3325H35.6262V35.0787H33.6351V35.9133H34.6371V45.528H31.4297V46.2771H32.1959V118.899H56.0986V46.2771H56.8648V45.528H53.6574Z" fill="#D9D9D9"/>
<path d="M130.538 54.6011V55.1388L126.937 53.8809V52.3804H124.234V52.9366L120.633 51.6786V50.1598H117.929V50.7343L114.328 49.4763V47.9385H111.625V48.5327V50.3528V118.899H133.242V57.0154V56.0832V54.6011H130.538Z" fill="#D9D9D9"/>
<path d="M74.8267 14.8125V15.3503L71.2256 14.0924V12.5919H68.5222V13.148L64.921 11.8901V10.3713H62.2176V10.9464L58.6165 9.68854V8.1499H55.9131V8.74415V10.5643V118.899H77.5301V17.2268V16.2947V14.8125H74.8267Z" fill="#F5F5F5"/>
<path d="M121.829 63.8338V62.3417H119.155V59.3567H93.2152V62.3417H90.5425V63.8338H88.771V65.3258H91.6666V118.9H120.704V65.3258H123.599V63.8338H121.829Z" fill="#F5F5F5"/>
<path d="M8.02482 35.4791L18.308 33.0327C19.5636 32.7337 20.8654 32.6239 22.162 32.707L32.1274 33.3447C33.8596 32.4034 35.8396 31.8893 37.8665 31.8549L67.4699 31.3187C69.261 31.2859 71.0488 31.4857 72.7759 31.9114L74.2485 32.2745L87.9919 32.5461C89.1954 32.5697 90.3895 32.7322 91.546 33.0297L97.6182 34.592L113.042 35.039L97.0579 35.9407C95.4358 36.0322 93.8069 35.9399 92.2114 35.6653C91.5802 35.5569 90.9105 35.4418 90.3152 35.3395C89.0997 35.1305 87.8595 35.0672 86.6252 35.1504L73.0415 36.068C71.5365 36.1695 70.0238 36.1398 68.5247 35.978L64.1182 35.5036L35.023 37.1063C33.4872 37.1909 31.948 36.9987 30.4977 36.5402L27.1366 35.4791L14.7359 35.8033L13.9766 36.1481C13.1557 36.5204 12.2486 36.7172 11.3287 36.7218L0.0290527 36.7813L8.02482 35.4799V35.4791Z" fill="white"/>
<path d="M57.0149 62.7252L66.4867 60.4718C67.6432 60.1964 68.8424 60.095 70.0365 60.172L79.2153 60.7594C80.81 59.8928 82.6345 59.4191 84.5017 59.387L111.768 58.8935C113.418 58.8637 115.064 59.0476 116.656 59.4397L118.012 59.7738L130.671 60.024C131.778 60.0461 132.879 60.1956 133.945 60.4695L139.538 61.9082L153.744 62.3201L139.022 63.1509C137.528 63.2355 136.028 63.1501 134.558 62.8968C133.977 62.7969 133.359 62.6909 132.812 62.5963C131.693 62.404 130.55 62.3453 129.413 62.4224L116.902 63.2676C115.515 63.3614 114.122 63.3332 112.742 63.1852L108.683 62.7481L81.8846 64.2242C80.4701 64.302 79.053 64.125 77.7163 63.7031L74.6208 62.7252L63.199 63.0235L62.4995 63.3408C61.7435 63.6841 60.9082 63.8649 60.06 63.8694L49.6521 63.9236L57.0166 62.7244L57.0149 62.7252Z" fill="white"/>
<path d="M101.886 42.868L107.439 41.5468C108.117 41.3859 108.82 41.3264 109.519 41.3706L114.9 41.7146C115.835 41.2066 116.904 40.9289 117.998 40.9106L133.982 40.6207C134.949 40.6032 135.914 40.7108 136.847 40.9411L137.642 41.1372L145.063 41.2836C145.713 41.2966 146.358 41.3843 146.983 41.5453L150.261 42.389L158.589 42.6308L149.958 43.1175C149.083 43.1671 148.203 43.1175 147.341 42.9687C147 42.91 146.639 42.8482 146.318 42.7925C145.662 42.6796 144.992 42.6453 144.325 42.6903L136.991 43.1861C136.178 43.2411 135.361 43.2251 134.552 43.1373L132.172 42.881L116.463 43.7461C115.633 43.7918 114.802 43.6881 114.019 43.4402L112.205 42.8673L105.509 43.042L105.099 43.2281C104.656 43.4295 104.166 43.5355 103.669 43.5378L97.5679 43.5698L101.885 42.8673L101.886 42.868Z" fill="white"/>
<path d="M17.5033 21.4156L25.0122 19.629C25.9287 19.4109 26.8803 19.3308 27.8258 19.391L35.1024 19.8564C36.3665 19.1691 37.8135 18.7937 39.2929 18.7686L60.909 18.3772C62.2167 18.3536 63.5219 18.4993 64.7835 18.8105L65.8589 19.0752L75.8944 19.2736C76.7733 19.2911 77.6454 19.4093 78.4901 19.6268L82.9241 20.7672L94.1861 21.0937L82.5149 21.752C81.3302 21.8191 80.1412 21.752 78.9762 21.5506C78.5158 21.4713 78.0263 21.3874 77.5916 21.3126C76.7041 21.16 75.7978 21.1135 74.8967 21.1745L64.9782 21.8451C63.8789 21.9191 62.7745 21.8977 61.6803 21.7795L58.4627 21.4324L37.2181 22.6026C36.0966 22.6643 34.9734 22.524 33.9142 22.1891L31.4602 21.4141L22.4053 21.6505L21.851 21.9023C21.2514 22.1746 20.5894 22.318 19.9172 22.3211L11.666 22.3646L17.5042 21.4141L17.5033 21.4156Z" fill="white"/>
<path d="M23.5153 17C13.0015 17 4.479 24.5772 4.479 33.923C4.479 41.237 16.1355 57.2792 21.2042 63.9106C22.3124 65.3631 24.716 65.3631 25.8271 63.9106C30.8958 57.2786 42.5494 41.2364 42.5494 33.923C42.5494 24.5778 34.0291 17 23.5153 17ZM23.5153 39.8444C19.6465 39.8444 16.5104 37.0561 16.5104 33.6165C16.5104 30.1768 19.6465 27.391 23.5153 27.391C27.3841 27.391 30.5202 30.1793 30.5202 33.6165C30.5202 37.0536 27.3841 39.8444 23.5153 39.8444Z" fill="#EA455F"/>
<path d="M35.4759 105.34H13.501V118.9H35.4759V105.34Z" fill="#2B3467"/>
<path d="M26.6626 105.34H22.3149V109.6H26.6626V105.34Z" fill="#F5F5F5"/>
<path d="M20.2351 116.31H14.8206V117.521H20.2351V116.31Z" fill="#F5F5F5"/>
<path d="M20.2351 117.865H14.8206V118.124H20.2351V117.865Z" fill="#F5F5F5"/>
<path d="M35.4759 78.22H13.501V91.7801H35.4759V78.22Z" fill="#2B3467"/>
<path d="M26.6626 78.22H22.3149V82.4796H26.6626V78.22Z" fill="#F5F5F5"/>
<path d="M20.2351 89.1902H14.8206V90.4016H20.2351V89.1902Z" fill="#F5F5F5"/>
<path d="M20.2351 90.7449H14.8206V91.0042H20.2351V90.7449Z" fill="#F5F5F5"/>
<path d="M33.302 91.78H11.3271V105.34H33.302V91.78Z" fill="#2B3467"/>
<path d="M24.4888 91.78H20.1411V96.0397H24.4888V91.78Z" fill="#F5F5F5"/>
<path d="M18.0612 102.75H12.6467V103.962H18.0612V102.75Z" fill="#F5F5F5"/>
<path d="M18.0612 104.305H12.6467V104.564H18.0612V104.305Z" fill="#F5F5F5"/>
<g style="mix-blend-mode:multiply" opacity="0.4">
<path d="M33.302 91.78V92.9655L13.501 91.78H33.302Z" fill="#2B3467"/>
</g>
<g style="mix-blend-mode:multiply" opacity="0.4">
<path d="M33.302 105.34H13.501V106.909L33.302 105.34Z" fill="#2B3467"/>
</g>
<path d="M90.0044 45.0017C90.0044 44.9476 89.9873 44.8949 89.9514 44.8476C89.8575 44.7264 89.6755 44.6928 89.5363 44.7706L86.475 46.4908L85.2066 46.5884C84.9777 46.606 84.7573 46.6784 84.5711 46.7982L81.2869 48.9181L73.7993 50.9259L74.5271 54.5737L82.7415 50.7977L83.8784 50.8824C84.1654 50.903 84.4524 50.8542 84.7095 50.7382L87.4804 49.4979L89.3048 48.8548C89.5047 48.7846 89.626 48.6137 89.626 48.4337C89.626 48.3773 89.6149 48.3216 89.5901 48.2667C89.4962 48.0523 89.2356 47.9348 88.9854 47.9936L88.004 48.2232L87.705 46.9706L89.9027 45.2031C89.9694 45.149 90.0035 45.0757 90.0035 45.001L90.0044 45.0017ZM87.0789 48.4009L86.9866 47.5961L87.2959 48.3605L87.0789 48.4009Z" fill="#FFC89F"/>
<path d="M88.0047 48.2231C87.8194 48.2628 87.634 48.3002 87.4478 48.3368L86.8901 48.4467C86.5168 48.5153 86.1452 48.5885 85.7703 48.6526C86.141 48.5733 86.5134 48.5031 86.8849 48.4283L87.4444 48.3246C87.6306 48.2895 87.8177 48.2559 88.0047 48.2231Z" fill="#EA455F"/>
<path d="M87.7059 46.9714C87.3899 47.2575 87.0653 47.5359 86.745 47.8189C86.4195 48.0966 86.0984 48.3781 85.7695 48.6527C86.0856 48.3667 86.4101 48.0882 86.7305 47.806C87.0559 47.5283 87.3771 47.2468 87.7059 46.9722V46.9714Z" fill="#EA455F"/>
<path d="M86.4758 46.49C86.3605 46.564 86.2409 46.6319 86.1222 46.6998C86.0017 46.7661 85.8813 46.8333 85.7566 46.8935C85.8719 46.8195 85.9915 46.7516 86.1102 46.6837C86.2307 46.6174 86.3511 46.5503 86.4758 46.49Z" fill="#EA455F"/>
<path d="M86.4554 48.5206C86.4306 48.4596 86.4127 48.3971 86.3948 48.3345C86.3794 48.2712 86.3632 48.2086 86.3555 48.1438C86.3811 48.2048 86.3982 48.2674 86.4161 48.3299C86.4315 48.3932 86.4477 48.4558 86.4554 48.5206Z" fill="#EA455F"/>
<path d="M82.7448 112.547L86.0188 115.072C86.6184 115.535 87.3359 115.857 88.1089 116.011L90.9678 116.58C91.4478 116.676 91.7895 117.057 91.7895 117.497C91.7895 117.918 91.476 118.288 91.0216 118.401L89.5311 118.775C89.2023 118.858 88.8623 118.899 88.5206 118.899H83.1898L81.1322 118.523L80.3498 118.785C80.1251 118.861 79.8868 118.899 79.6459 118.899H76.7282C75.7305 118.899 75.0002 118.06 75.247 117.196L76.3788 113.236L82.744 112.547H82.7448Z" fill="#EA455F"/>
<path d="M91.7895 117.497C91.7895 117.708 91.7109 117.905 91.576 118.064C91.441 118.223 91.2488 118.344 91.0225 118.401L89.532 118.775C89.2023 118.857 88.8623 118.899 88.5215 118.899H83.1907L81.133 118.522L80.3506 118.784C80.126 118.86 79.8877 118.899 79.6468 118.899H76.7299C75.8945 118.899 75.2453 118.309 75.2026 117.609C75.4717 117.783 75.8031 117.886 76.1678 117.886H79.7211L80.9374 117.478L83.1651 117.886H88.9375C89.3073 117.886 89.6763 117.841 90.0325 117.751L91.646 117.346C91.6879 117.336 91.728 117.323 91.7673 117.308C91.7818 117.368 91.7887 117.431 91.7887 117.495L91.7895 117.497Z" fill="#F5F5F5"/>
<path d="M52.0148 108.57L50.8002 112.278C50.5781 112.957 50.5474 113.674 50.7114 114.366L51.3178 116.925C51.4186 117.356 51.1726 117.791 50.7242 117.973C50.2954 118.148 49.788 118.047 49.4839 117.725L48.4854 116.669C48.2651 116.436 48.0814 116.177 47.9396 115.899L45.7282 111.568L45.2584 109.74L44.6665 109.214C44.4965 109.062 44.3582 108.885 44.2582 108.69L43.0479 106.319C42.6336 105.508 43.1862 104.566 44.1685 104.409L48.6725 103.686L52.0148 108.572V108.57Z" fill="#EA455F"/>
<path d="M50.7234 117.973C50.5082 118.06 50.275 118.078 50.0563 118.035C49.8377 117.991 49.6352 117.885 49.4832 117.725L48.4838 116.668C48.2634 116.435 48.0807 116.176 47.9389 115.899L45.7274 111.566L45.2577 109.738L44.6657 109.211C44.4958 109.059 44.3574 108.882 44.2574 108.686L43.048 106.316C42.7012 105.637 43.0326 104.865 43.7279 104.54C43.6621 104.831 43.6946 105.143 43.8457 105.439L45.32 108.327L46.2399 109.146L46.7482 111.125L49.1424 115.816C49.2961 116.117 49.4951 116.398 49.7334 116.65L50.8157 117.793C50.8439 117.822 50.8729 117.851 50.9053 117.877C50.8498 117.913 50.7892 117.945 50.7243 117.971L50.7234 117.973Z" fill="#F5F5F5"/>
<path d="M64.9152 44.9757L64.7196 45.0657C61.5609 46.5113 59.8253 49.6259 60.4394 52.7482L62.7252 64.3768L62.5253 75.5363C62.5253 75.5363 67.8646 77.9995 78.012 75.1274L77.2492 71.7809L76.5873 62.189C76.2576 57.4122 74.9242 52.733 72.6573 48.3955L72.7017 47.4023C72.7137 47.1368 72.5855 46.882 72.3558 46.7142L69.9137 44.9254L66.3425 44.0153L65.4593 43.7598L64.9144 44.9772L64.9152 44.9757Z" fill="#EA455F"/>
<path d="M78.0111 75.1257L83.2137 91.7089C83.5639 92.8257 83.6741 93.9913 83.5392 95.1447L81.9342 108.82L82.7448 112.547C82.7448 112.547 82.2383 113.99 76.3796 113.236L76.6444 105.506L76.0901 95.7977L74.7644 91.6944C74.7644 91.6944 74.1785 95.2065 73.8718 96.3576C73.5114 97.7079 72.3907 98.8017 71.0113 99.4418C67.3367 101.147 56.2625 106.18 56.2625 106.18L52.377 109.044C52.377 109.044 49.1389 107.998 48.3684 103.701L50.8045 103.068L60.1199 96.6986C60.4872 96.4477 60.8741 96.2196 61.2764 96.0166L65.73 93.7716L62.5235 75.5354L78.0102 75.1265L78.0111 75.1257Z" fill="#161616"/>
<path d="M72.3017 48.0467L72.2291 46.6385L73.6821 41.4833L67.4501 40.0828L66.4935 43.4774L66.3423 44.0136L69.5889 45.1998C70.0664 45.3745 70.4764 45.6697 70.7677 46.0496L72.3017 48.0467Z" fill="#FFC89F"/>
<path d="M70.4397 44.8933C68.1472 44.3783 66.7566 42.3004 67.334 40.2537L68.6101 35.7255C69.1867 33.6781 71.5134 32.4362 73.8051 32.9519C76.0977 33.4668 77.5557 35.3052 76.9783 37.3527L75.6347 42.1204C75.0581 44.1678 72.7314 45.4097 70.4397 44.894V44.8933Z" fill="#FFC89F"/>
<path d="M72.7349 44.8443L72.5239 45.5942C72.0917 45.4996 71.2948 45.2265 70.6602 44.7131C71.3973 45.035 72.0866 45.0106 72.7349 44.8436V44.8443Z" fill="#EA455F"/>
<path d="M74.9291 39.3649C74.877 39.5495 74.6678 39.6609 74.4611 39.6143C74.2544 39.5678 74.1297 39.3809 74.1818 39.1963C74.2339 39.0117 74.4431 38.9003 74.6498 38.9469C74.8565 38.9934 74.9813 39.1803 74.9291 39.3649Z" fill="#161616"/>
<path d="M75.5654 39.1658C75.521 39.1155 75.4715 39.0689 75.4177 39.027C75.3912 39.0056 75.3639 38.9858 75.3357 38.966C75.3066 38.9477 75.2784 38.9278 75.2485 38.9118C75.129 38.8447 74.9991 38.7905 74.8616 38.7638C74.8283 38.7539 74.7924 38.7524 74.7583 38.747L74.7062 38.7402C74.6891 38.7379 74.6711 38.7386 74.6532 38.7379C74.6182 38.7364 74.5823 38.7348 74.5473 38.7341C74.5123 38.7364 74.4764 38.7386 74.4414 38.7409L74.3884 38.744L74.3363 38.7524L74.2312 38.7699C74.1621 38.7836 74.0937 38.8042 74.0237 38.8195C74.0903 38.7959 74.1569 38.7707 74.2253 38.7508L74.3303 38.728L74.3833 38.7165L74.4371 38.7104C74.473 38.7066 74.5097 38.7028 74.5456 38.699C74.5823 38.699 74.6182 38.699 74.6549 38.6997C74.6728 38.6997 74.6916 38.6997 74.7096 38.7013L74.7642 38.7081L74.8189 38.715C74.8368 38.7165 74.8548 38.7203 74.8727 38.7249C75.0154 38.7531 75.1503 38.8103 75.269 38.8859C75.3869 38.9614 75.4911 39.056 75.5663 39.1658H75.5654Z" fill="#161616"/>
<path d="M71.0078 38.4838C70.9557 38.6684 70.7464 38.7798 70.5397 38.7332C70.333 38.6867 70.2083 38.4998 70.2604 38.3152C70.3125 38.1306 70.5218 38.0192 70.7285 38.0657C70.9352 38.1123 71.0599 38.2992 71.0078 38.4838Z" fill="#161616"/>
<path d="M71.6441 38.2847C71.5996 38.2344 71.5501 38.1878 71.4963 38.1459C71.4698 38.1245 71.4425 38.1047 71.4143 38.0849C71.3852 38.0666 71.3571 38.0467 71.3272 38.0307C71.2076 37.9636 71.0777 37.9094 70.9402 37.8827C70.9069 37.8728 70.871 37.8713 70.8369 37.8659L70.7848 37.8591C70.7677 37.8568 70.7497 37.8575 70.7318 37.8568C70.6968 37.8553 70.6609 37.8537 70.6259 37.853C70.5909 37.8552 70.555 37.8575 70.52 37.8598L70.467 37.8629L70.4149 37.8713L70.3099 37.8888C70.2407 37.9025 70.1723 37.9231 70.1023 37.9384C70.1689 37.9148 70.2355 37.8896 70.3039 37.8697L70.4089 37.8469L70.4619 37.8354L70.5157 37.8293C70.5516 37.8255 70.5883 37.8217 70.6242 37.8179C70.6609 37.8179 70.6968 37.8179 70.7335 37.8186C70.7515 37.8186 70.7702 37.8186 70.7882 37.8202L70.8429 37.827L70.8975 37.8339C70.9155 37.8354 70.9334 37.8392 70.9513 37.8438C71.094 37.872 71.2289 37.9292 71.3477 38.0055C71.4655 38.081 71.5697 38.1756 71.6449 38.2855L71.6441 38.2847Z" fill="#161616"/>
<path d="M72.8861 40.0476C72.8775 40.1964 72.8639 40.3451 72.8502 40.4931C72.8365 40.6411 72.8194 40.7898 72.8024 40.9378C72.7938 41.0111 72.7861 41.0889 72.7571 41.1606C72.7298 41.2331 72.6888 41.3017 72.6332 41.3604C72.5777 41.4184 72.5068 41.468 72.4231 41.4886C72.342 41.5069 72.2617 41.5252 72.1797 41.542C72.2583 41.5168 72.3377 41.4939 72.4163 41.4695C72.4932 41.4466 72.5564 41.3978 72.6059 41.3406C72.6546 41.2834 72.6922 41.2178 72.7161 41.1484C72.7426 41.0797 72.7486 41.008 72.7571 40.9333C72.775 40.7853 72.7938 40.6373 72.8152 40.49C72.8365 40.3421 72.8587 40.1948 72.8852 40.0476H72.8861Z" fill="#161616"/>
<path d="M72.3802 42.1027C72.2658 42.2248 72.1103 42.2965 71.9327 42.3262C71.8882 42.3339 71.8421 42.3361 71.796 42.3377C71.7499 42.3354 71.702 42.3339 71.6551 42.3247C71.5611 42.3087 71.4671 42.2774 71.3851 42.2293C71.2194 42.1348 71.1033 41.989 71.0512 41.8388C71.0238 41.7633 71.0102 41.6854 71.011 41.6092C71.0127 41.5321 71.0238 41.4551 71.0623 41.3818C71.14 41.4619 71.2075 41.5336 71.2707 41.5985C71.3014 41.6298 71.3313 41.6595 71.3612 41.6877C71.4526 41.7732 71.538 41.8395 71.6277 41.8899C71.6721 41.9158 71.7191 41.9364 71.7704 41.957C71.7951 41.9677 71.8233 41.9753 71.8507 41.986C71.8797 41.9929 71.9087 42.0043 71.9395 42.0104C71.9976 42.0257 72.0608 42.0386 72.1283 42.0516C72.206 42.0669 72.2897 42.0821 72.3811 42.1035L72.3802 42.1027Z" fill="#EA455F"/>
<path d="M72.1275 42.0508C72.078 42.0775 72.0233 42.0973 71.9652 42.1103C71.8311 42.1408 71.668 42.1179 71.5381 42.0439C71.4075 41.9699 71.3203 41.8532 71.2879 41.7357C71.2751 41.69 71.2691 41.6434 71.2708 41.5977C71.3015 41.6289 71.3314 41.6587 71.3613 41.6869C71.4527 41.7723 71.5381 41.8387 71.6278 41.8891C71.6722 41.915 71.7192 41.9356 71.7705 41.9562C71.7952 41.9669 71.8234 41.9745 71.8508 41.9852C71.8798 41.992 71.9088 42.0035 71.9396 42.0096C71.9977 42.0248 72.0609 42.0378 72.1284 42.0508H72.1275Z" fill="white"/>
<path d="M75.8276 38.2359C75.6688 38.181 75.5441 38.136 75.4211 38.0994C75.2998 38.0635 75.1904 38.0323 75.0768 38.0109L75.0563 38.0056L75.035 38.0025L74.9923 37.9949C74.9778 37.9918 74.9641 37.9888 74.9496 37.9857C74.935 37.9827 74.9205 37.9827 74.906 37.9796C74.8761 37.9758 74.8471 37.9697 74.8163 37.9644C74.7856 37.9621 74.754 37.9575 74.7224 37.9529C74.7061 37.9514 74.6899 37.9476 74.6737 37.9445C74.6575 37.943 74.6404 37.9422 74.6241 37.9399C74.5908 37.9369 74.5558 37.9316 74.5191 37.9255C74.4473 37.9163 74.3722 37.9102 74.2859 37.8888C74.3107 37.8583 74.3389 37.8301 74.3687 37.8049C74.3986 37.7798 74.4294 37.7538 74.4627 37.734C74.4969 37.7149 74.5319 37.6966 74.5686 37.6798C74.5866 37.6707 74.6054 37.663 74.6241 37.6554C74.6429 37.6493 74.6626 37.6432 74.6822 37.6379C74.7215 37.6272 74.7617 37.6165 74.8027 37.6081C74.8437 37.6028 74.8864 37.5997 74.9282 37.5974C74.9496 37.5967 74.9709 37.5951 74.9914 37.5959L75.0555 37.6013C75.0973 37.6066 75.1409 37.6081 75.1819 37.6196C75.3493 37.6531 75.5048 37.7325 75.6209 37.84C75.6363 37.8522 75.6491 37.8675 75.6628 37.882C75.6765 37.8965 75.6893 37.911 75.7012 37.9255C75.7251 37.956 75.7465 37.988 75.7653 38.0208C75.8012 38.0872 75.8276 38.1596 75.8285 38.2375L75.8276 38.2359Z" fill="#161616"/>
<path d="M71.9062 37.3541C71.7474 37.2992 71.6227 37.2542 71.4997 37.2176C71.3784 37.1817 71.2691 37.1504 71.1555 37.1291L71.135 37.1237L71.1136 37.1207L71.0709 37.1131C71.0564 37.11 71.0427 37.107 71.0282 37.1039C71.0137 37.1009 70.9991 37.1009 70.9846 37.0978C70.9547 37.094 70.9257 37.0879 70.8949 37.0826C70.8642 37.0803 70.8326 37.0757 70.801 37.0711C70.7847 37.0696 70.7685 37.0658 70.7523 37.0627C70.7361 37.0612 70.719 37.0604 70.7027 37.0581C70.6686 37.0551 70.6344 37.0497 70.5977 37.0436C70.5259 37.0345 70.4508 37.0284 70.3645 37.007C70.3893 36.9765 70.4175 36.9483 70.4474 36.9231C70.4772 36.8979 70.508 36.872 70.5413 36.8514C70.5755 36.8323 70.6105 36.814 70.6472 36.7973C70.6652 36.7881 70.684 36.7805 70.7027 36.7728C70.7215 36.7667 70.7412 36.7606 70.7608 36.7553C70.8001 36.7446 70.8403 36.7339 70.8813 36.7255C70.9223 36.7202 70.965 36.7172 71.0068 36.7149C71.0282 36.7141 71.0495 36.7126 71.07 36.7133L71.1341 36.7187C71.176 36.724 71.2195 36.7255 71.2605 36.737C71.4279 36.7706 71.5834 36.8499 71.6995 36.9574C71.7149 36.9697 71.7277 36.9849 71.7414 36.9994C71.7551 37.0139 71.7679 37.0276 71.7798 37.0429C71.8038 37.0734 71.8251 37.1054 71.8439 37.1382C71.8798 37.2046 71.9062 37.2771 71.9071 37.3549L71.9062 37.3541Z" fill="#161616"/>
<path d="M66.9172 41.9733L66.5995 41.4942C66.1733 40.8527 66.0016 40.1013 66.1101 39.3613L66.7456 35.0513L70.269 33.8796L69.7812 35.6105C69.6155 36.1979 69.2371 36.7197 68.705 37.0942L68.1054 37.5168L67.2145 40.9183L66.9172 41.9725V41.9733Z" fill="#161616"/>
<path d="M67.9206 37.4553L67.7044 37.4067C67.278 37.3109 66.8454 37.5418 66.738 37.9226L66.3911 39.1536C66.2837 39.5343 66.5423 39.9207 66.9687 40.0166L67.1849 40.0652C67.6113 40.161 68.0439 39.9301 68.1512 39.5493L68.4982 38.3183C68.6055 37.9376 68.3469 37.5512 67.9206 37.4553Z" fill="#FFC89F"/>
<path d="M67.9362 37.8929C67.8594 37.886 67.7842 37.8853 67.7099 37.8937C67.6364 37.9028 67.5655 37.9219 67.498 37.9471C67.4314 37.973 67.3691 38.0081 67.3144 38.0493C67.2589 38.0905 67.2093 38.1378 67.1718 38.1927C67.1325 38.2461 67.0991 38.3041 67.0795 38.3659C67.0564 38.4284 67.0385 38.4971 67.0154 38.5612C66.9719 38.6924 66.9249 38.822 66.8694 38.951C66.8882 38.8144 66.9164 38.6802 66.9471 38.5459C66.9625 38.4788 66.9779 38.4132 66.9975 38.3445C67.0172 38.2743 67.053 38.208 67.0966 38.1477C67.1854 38.0264 67.3212 37.9341 67.4733 37.8883C67.5493 37.8654 67.6287 37.854 67.7073 37.854C67.7859 37.8563 67.8636 37.8685 67.9362 37.8921V37.8929Z" fill="#EA455F"/>
<path d="M67.2512 39.2401C67.276 39.2034 67.3025 39.1729 67.3264 39.1417L67.3981 39.0501L67.4673 38.957C67.4912 38.9258 67.5143 38.893 67.5433 38.8586C67.551 38.9006 67.5451 38.9426 67.5322 38.983C67.5194 39.0227 67.4989 39.0608 67.4725 39.0951C67.446 39.1294 67.4135 39.16 67.3768 39.1851C67.3392 39.2095 67.2982 39.2301 67.2512 39.2393V39.2401Z" fill="#EA455F"/>
<path d="M66.7463 35.052C67.4579 32.5286 70.3253 30.9975 73.1508 31.633C75.9764 32.2684 77.6906 34.8285 76.9791 37.3527L66.7463 35.0528V35.052Z" fill="#2B3467"/>
<path d="M78.3492 36.6791L71.9242 35.2351L71.6646 36.1574L78.0895 37.6014C78.3748 37.6655 78.6644 37.5106 78.7361 37.2566C78.8079 37.0018 78.6345 36.7432 78.35 36.6791H78.3492Z" fill="#2B3467"/>
<path d="M77.1347 36.406C76.7469 36.3274 76.3599 36.2443 75.973 36.1604L74.8139 35.9048L73.6574 35.6401L73.08 35.5043L72.5034 35.3647L73.0851 35.4853L73.6651 35.6096L74.8242 35.8652L75.9807 36.1299C76.3659 36.2199 76.7503 36.3099 77.1338 36.4053L77.1347 36.406Z" fill="#161616"/>
<g style="mix-blend-mode:multiply" opacity="0.4">
<path d="M64.6299 53.4492L67.7962 56.4738L76.7247 64.1784L76.7589 64.6728L71.5827 61.1248C69.9812 60.0271 68.5897 58.7051 67.4631 57.2092L64.6307 53.4492H64.6299Z" fill="#A65B3C"/>
</g>
<g style="mix-blend-mode:multiply" opacity="0.4">
<path d="M70.8806 46.7744L71.6408 47.4549L71.4563 47.4099C71.2948 47.3702 71.1232 47.4289 71.0326 47.554L70.7729 47.9126C70.7729 47.9126 70.9387 47.2031 70.8806 46.7744Z" fill="#A65B3C"/>
</g>
<path d="M67.7963 56.4739C67.1258 55.8453 66.4638 55.2099 65.7976 54.5783C65.1364 53.9421 64.4711 53.3097 63.8142 52.6697C64.4847 53.2983 65.1467 53.9337 65.8129 54.5653C66.4741 55.2015 67.1394 55.8339 67.7963 56.4739Z" fill="#A65B3C"/>
<path d="M74.7654 91.6945L74.914 90.3359L75.0703 88.9781L75.3821 86.2616L75.7084 83.5467L75.8715 82.1889L76.0415 80.8318L75.8929 82.1911L75.7366 83.549L75.4248 86.2654L75.0985 88.9804L74.9354 90.3382L74.7654 91.6945Z" fill="#2B3467"/>
<path d="M76.0414 79.3771C76.0337 79.027 76.0277 78.6776 76.0251 78.3274L76.02 77.2778L76.0251 76.2281C76.0277 75.878 76.0337 75.5286 76.0414 75.1785C76.0491 75.5286 76.055 75.878 76.0576 76.2281L76.0627 77.2778L76.0576 78.3274C76.055 78.6776 76.0491 79.027 76.0414 79.3771Z" fill="#2B3467"/>
<path d="M65.3789 79.5693C65.5361 79.4853 65.6881 79.3946 65.8376 79.3L66.0605 79.1581L66.2792 79.0109C66.5679 78.811 66.8463 78.5989 67.1103 78.3739C67.3785 78.1519 67.627 77.9124 67.8611 77.6622L68.0345 77.473L68.1968 77.2762L68.2788 77.1778L68.3539 77.0756L68.5043 76.8704C68.3189 77.1518 68.1207 77.4288 67.8859 77.6813C67.6552 77.936 67.4058 78.1771 67.1393 78.4021C66.872 78.6264 66.5927 78.8392 66.298 79.0345C66.0042 79.2298 65.6984 79.4121 65.3772 79.57L65.3789 79.5693Z" fill="#2B3467"/>
<path d="M77.2057 78.0399C77.198 77.7988 77.192 77.5578 77.1894 77.3167L77.1843 76.5935L77.1894 75.8704C77.192 75.6293 77.198 75.3883 77.2057 75.1472C77.2134 75.3883 77.2193 75.6293 77.2219 75.8704L77.227 76.5935L77.2219 77.3167C77.2193 77.5578 77.2134 77.7988 77.2057 78.0399Z" fill="#2B3467"/>
<path d="M73.2158 53.1068C72.6999 52.5019 72.1926 51.8909 71.6801 51.2829C71.1744 50.6711 70.6636 50.0624 70.1614 49.4475C70.6781 50.0524 71.1847 50.6635 71.6971 51.2714C72.2028 51.8832 72.7136 52.492 73.2158 53.1068Z" fill="#A65B3C"/>
<path d="M73.2158 69.4611C72.1464 68.8561 71.0838 68.2428 70.0169 67.6333C68.9544 67.0185 67.8892 66.4082 66.8301 65.7896C67.8995 66.3945 68.962 67.0078 70.0289 67.6173C71.0915 68.2321 72.1566 68.8424 73.2158 69.4611Z" fill="#A65B3C"/>
<path d="M72.3019 48.0468C72.0585 47.8409 71.8236 47.6273 71.5836 47.4175C71.3496 47.2031 71.1112 46.9926 70.8806 46.7744C71.124 46.9804 71.3589 47.194 71.599 47.4038C71.833 47.6181 72.0713 47.8286 72.3019 48.0468Z" fill="#A65B3C"/>
<path d="M70.5645 48.4794C70.6294 48.3459 70.6781 48.207 70.7208 48.0674C70.7626 47.9271 70.7959 47.7852 70.8198 47.6418C70.8438 47.4984 70.8651 47.3542 70.8728 47.2093C70.8831 47.0643 70.8822 46.9194 70.8805 46.7737C70.8839 46.8462 70.8899 46.9186 70.8916 46.9919C70.8907 47.0643 70.8925 47.1376 70.8873 47.21C70.8822 47.3557 70.8634 47.5007 70.8412 47.6448C70.8147 47.7883 70.7788 47.9309 70.7344 48.0713C70.69 48.2116 70.6362 48.3497 70.5645 48.4801V48.4794Z" fill="#A65B3C"/>
<path d="M70.5646 48.4793C69.6575 47.9255 68.7564 47.3633 67.8518 46.8056C66.9516 46.2427 66.0487 45.6835 65.1519 45.116C66.059 45.6698 66.9601 46.232 67.8647 46.7896C68.7649 47.3526 69.6678 47.9117 70.5646 48.4793Z" fill="#A65B3C"/>
<path d="M67.7963 56.4738L74.9353 62.9304C75.4991 63.44 76.1371 63.8786 76.8324 64.2349L87.0242 69.4496L88.7351 66.9475L79.0216 59.5313L73.215 53.1067L67.7954 56.4746L67.7963 56.4738Z" fill="#FFC89F"/>
<path d="M88.7349 66.9475L93.162 67.5204C93.4763 67.5608 93.7095 67.8019 93.7095 68.0857V70.323C93.7095 70.6892 93.3944 70.9936 92.9861 71.0218L91.8902 71.0981L90.855 71.3483C90.6816 71.3902 90.4971 71.3544 90.3587 71.2514L89.7505 70.799C89.5643 70.6602 89.5114 70.4245 89.6224 70.2323L88.2387 70.1911C87.9833 70.1834 87.7407 70.0896 87.5605 69.9287L87.0232 69.4504L88.7341 66.9483L88.7349 66.9475Z" fill="#FFC89F"/>
<path d="M91.8902 71.0982L91.452 71.0798L91.2333 71.0692C91.1599 71.0684 91.0855 71.0554 91.0181 71.0264C90.9506 70.999 90.8925 70.954 90.8447 70.9044L90.6952 70.761C90.5961 70.6649 90.4953 70.571 90.3971 70.4734C90.2989 70.3704 90.2818 70.2156 90.3501 70.0966C90.415 69.9753 90.5645 69.8967 90.714 69.9043C90.7883 69.9058 90.8609 69.931 90.9233 69.9653L91.1137 70.0615L91.4938 70.2567L91.1086 70.0699L90.9164 69.9753C90.8541 69.9409 90.7857 69.9188 90.7131 69.9173C90.5688 69.9112 90.4261 69.9882 90.3655 70.1042C90.3014 70.2186 90.3194 70.3658 90.4133 70.4619C90.509 70.5588 90.6098 70.6549 90.708 70.7511L90.8558 70.8952C90.9028 70.9448 90.9574 70.9875 91.0232 71.015C91.0881 71.0432 91.1599 71.0562 91.2325 71.0577L91.4511 71.0699L91.8885 71.0974L91.8902 71.0982Z" fill="#EA455F"/>
<path d="M89.6233 70.2322C89.6959 70.1338 89.8249 70.0705 89.959 70.0621C90.0256 70.0613 90.0931 70.0697 90.1554 70.0895C90.187 70.0987 90.2161 70.1132 90.246 70.1246L90.3297 70.1711L90.2417 70.133C90.211 70.1231 90.1819 70.1109 90.1503 70.1033C90.0888 70.0865 90.0239 70.0781 89.9598 70.0804C89.8317 70.0865 89.7096 70.1437 89.6233 70.2314V70.2322Z" fill="#EA455F"/>
<path d="M90.9609 68.9277C90.7602 68.9796 90.5561 69.0185 90.3502 69.0505C90.1444 69.0826 89.9377 69.1101 89.7301 69.1291C89.5225 69.1467 89.3133 69.1596 89.1049 69.1635C88.8964 69.1703 88.6872 69.1657 88.4788 69.1566C88.6872 69.1581 88.8956 69.1589 89.104 69.1505C89.3124 69.1444 89.52 69.1291 89.7275 69.1101C89.9351 69.0933 90.1418 69.0681 90.3477 69.0384C90.5535 69.0071 90.7585 68.9727 90.9609 68.9277Z" fill="#EA455F"/>
<path d="M92.5839 70.2322C92.5446 70.0163 92.519 69.7989 92.4908 69.5815C92.4703 69.3641 92.4456 69.1459 92.4421 68.927C92.4635 69.1444 92.484 69.3626 92.5122 69.5792L92.5839 70.2315V70.2322Z" fill="#EA455F"/>
<path d="M96.3683 15.47H85.5931C84.8679 15.47 84.2803 15.9948 84.2803 16.6424V26.2656C84.2803 26.9132 84.8679 27.438 85.5931 27.438H89.1473C89.4462 27.438 89.7221 27.5807 89.8707 27.8126L90.8291 29.3039C90.8966 29.4084 91.0657 29.4084 91.1332 29.3039L92.0915 27.8126C92.2402 27.5807 92.5161 27.438 92.815 27.438H96.3683C97.0935 27.438 97.6811 26.9132 97.6811 26.2656V16.6424C97.6811 15.9948 97.0935 15.47 96.3683 15.47Z" fill="white"/>
<path d="M90.9804 29.4207C90.9018 29.4207 90.8309 29.3841 90.7916 29.3231L89.8333 27.8317C89.6923 27.6128 89.4292 27.4762 89.1465 27.4762H85.5924C84.845 27.4762 84.2368 26.9331 84.2368 26.2656V16.6425C84.2368 15.975 84.845 15.4319 85.5924 15.4319H96.3676C97.1149 15.4319 97.7231 15.975 97.7231 16.6425V26.2656C97.7231 26.9331 97.1149 27.4762 96.3676 27.4762H92.8134C92.5307 27.4762 92.2676 27.612 92.1267 27.8317L91.1683 29.3231C91.129 29.3841 91.0581 29.4207 90.9795 29.4207H90.9804ZM85.5924 15.5082C84.892 15.5082 84.3222 16.017 84.3222 16.6425V26.2656C84.3222 26.8911 84.892 27.4 85.5924 27.4H89.1465C89.46 27.4 89.7513 27.551 89.9076 27.7936L90.8659 29.2849C90.8899 29.3223 90.9326 29.3444 90.9804 29.3444C91.0282 29.3444 91.0709 29.3223 91.0948 29.2849L92.0532 27.7936C92.2095 27.551 92.5008 27.4 92.8143 27.4H96.3684C97.0688 27.4 97.6385 26.8911 97.6385 26.2656V16.6425C97.6385 16.017 97.0688 15.5082 96.3684 15.5082H85.5932H85.5924Z" fill="#2B3467"/>
<path d="M90.9804 18.342C89.6231 18.342 88.5229 19.3246 88.5229 20.5367C88.5229 21.4849 90.028 23.5652 90.6823 24.4256C90.8258 24.614 91.1358 24.614 91.2793 24.4256C91.9336 23.5659 93.4378 21.4857 93.4378 20.5367C93.4378 19.3246 92.3376 18.342 90.9804 18.342ZM90.9804 21.3041C90.4807 21.3041 90.0758 20.9425 90.0758 20.4963C90.0758 20.05 90.4807 19.6892 90.9804 19.6892C91.48 19.6892 91.8849 20.0508 91.8849 20.4963C91.8849 20.9418 91.48 21.3041 90.9804 21.3041Z" fill="#2B3467"/>
<path d="M107.193 42.6604H98.4082C97.8171 42.6604 97.3379 43.0884 97.3379 43.6162V51.462C97.3379 51.9898 97.8171 52.4178 98.4082 52.4178H101.305C101.549 52.4178 101.774 52.5345 101.896 52.7229L102.677 53.9389C102.732 54.0243 102.87 54.0243 102.925 53.9389L103.706 52.7229C103.828 52.5337 104.053 52.4178 104.297 52.4178H107.194C107.785 52.4178 108.264 51.9898 108.264 51.462V43.6162C108.264 43.0884 107.785 42.6604 107.194 42.6604H107.193Z" fill="white"/>
<path d="M102.801 54.0419C102.734 54.0419 102.674 54.0106 102.64 53.9587L101.859 52.7428C101.745 52.5666 101.533 52.4567 101.305 52.4567H98.4081C97.7949 52.4567 97.2952 52.0105 97.2952 51.4627V43.617C97.2952 43.0693 97.7949 42.623 98.4081 42.623H107.193C107.806 42.623 108.306 43.0693 108.306 43.617V51.4627C108.306 52.0105 107.807 52.4567 107.193 52.4567H104.296C104.068 52.4567 103.856 52.5666 103.742 52.7428L102.961 53.9587C102.927 54.0106 102.867 54.0419 102.8 54.0419H102.801ZM98.4081 42.6986C97.8418 42.6986 97.3806 43.1105 97.3806 43.6163V51.462C97.3806 51.9677 97.8418 52.3797 98.4081 52.3797H101.305C101.563 52.3797 101.804 52.504 101.932 52.7039L102.714 53.9198C102.75 53.9763 102.851 53.9763 102.887 53.9198L103.669 52.7039C103.797 52.504 104.038 52.3797 104.296 52.3797H107.193C107.759 52.3797 108.221 51.9677 108.221 51.462V43.6163C108.221 43.1105 107.759 42.6986 107.193 42.6986H98.4081Z" fill="#2B3467"/>
<path d="M102.801 45.0015C101.694 45.0015 100.797 45.8024 100.797 46.7903C100.797 47.5638 102.024 49.2596 102.558 49.9606C102.675 50.114 102.927 50.114 103.044 49.9606C103.578 49.2596 104.805 47.5631 104.805 46.7903C104.805 45.8024 103.908 45.0015 102.802 45.0015H102.801ZM102.801 47.4166C102.394 47.4166 102.064 47.1221 102.064 46.7583C102.064 46.3944 102.394 46.0999 102.801 46.0999C103.208 46.0999 103.538 46.3944 103.538 46.7583C103.538 47.1221 103.208 47.4166 102.801 47.4166Z" fill="#2B3467"/>
<path d="M130.644 18.4802H117.74C116.872 18.4802 116.168 19.1088 116.168 19.8838V31.4079C116.168 32.183 116.872 32.8115 117.74 32.8115H121.996C122.353 32.8115 122.684 32.9824 122.862 33.2601L124.01 35.0466C124.091 35.1717 124.293 35.1717 124.374 35.0466L125.521 33.2609C125.7 32.9832 126.031 32.8123 126.388 32.8123H130.644C131.512 32.8123 132.215 32.1837 132.215 31.4087V19.8846C132.215 19.1096 131.512 18.481 130.644 18.481V18.4802Z" fill="white"/>
<path d="M124.193 35.1787C124.101 35.1787 124.019 35.1367 123.974 35.0658L122.826 33.2792C122.656 33.0145 122.338 32.8497 121.996 32.8497H117.741C116.851 32.8497 116.127 32.2029 116.127 31.408V19.8839C116.127 19.089 116.851 18.4421 117.741 18.4421H130.645C131.535 18.4421 132.259 19.089 132.259 19.8839V31.408C132.259 32.2029 131.535 32.8497 130.645 32.8497H126.389C126.048 32.8497 125.73 33.0145 125.56 33.2792L124.413 35.065C124.368 35.136 124.286 35.1779 124.194 35.1779L124.193 35.1787ZM117.74 18.5184C116.897 18.5184 116.211 19.131 116.211 19.8839V31.408C116.211 32.1609 116.897 32.7735 117.74 32.7735H121.996C122.368 32.7735 122.714 32.9527 122.899 33.2411L124.047 35.0276C124.077 35.0749 124.132 35.1024 124.193 35.1024C124.253 35.1024 124.307 35.0742 124.338 35.0276L125.485 33.2411C125.67 32.9527 126.016 32.7735 126.389 32.7735H130.644C131.487 32.7735 132.173 32.1609 132.173 31.408V19.8839C132.173 19.131 131.487 18.5184 130.644 18.5184H117.74Z" fill="#2B3467"/>
<path d="M124.193 21.9192C122.567 21.9192 121.25 23.0962 121.25 24.5471C121.25 25.683 123.052 28.1737 123.836 29.2035C124.007 29.4293 124.379 29.4293 124.55 29.2035C125.334 28.1737 127.136 25.6822 127.136 24.5471C127.136 23.0962 125.819 21.9192 124.193 21.9192H124.193ZM124.193 25.4664C123.595 25.4664 123.11 25.0331 123.11 24.4991C123.11 23.9651 123.595 23.5326 124.193 23.5326C124.79 23.5326 125.276 23.9659 125.276 24.4991C125.276 25.0323 124.79 25.4664 124.193 25.4664Z" fill="#2B3467"/>
<path d="M124.193 14.9041C124.169 14.9041 124.15 14.8873 124.15 14.866C124.15 14.6562 124.145 14.4449 124.135 14.2374C124.135 14.216 124.152 14.1985 124.176 14.1977C124.203 14.1954 124.22 14.213 124.221 14.2343C124.23 14.4426 124.235 14.6554 124.235 14.866C124.235 14.8873 124.217 14.9041 124.193 14.9041ZM123.686 11.2608C123.667 11.2608 123.649 11.2494 123.645 11.2318C123.576 10.9877 123.498 10.7413 123.414 10.4995C123.408 10.4797 123.42 10.4583 123.443 10.4515C123.465 10.4454 123.489 10.4568 123.496 10.4766C123.58 10.7192 123.658 10.9671 123.727 11.2128C123.733 11.2334 123.719 11.254 123.696 11.2593C123.693 11.2601 123.689 11.2608 123.686 11.2608ZM91.6475 11.0785C91.6475 11.0785 91.6398 11.0785 91.6364 11.077C91.6133 11.0716 91.5997 11.0503 91.6065 11.0304C91.68 10.7848 91.762 10.5377 91.8491 10.2958C91.8568 10.276 91.8798 10.2646 91.9029 10.2714C91.9251 10.2783 91.9379 10.2997 91.9302 10.3195C91.8431 10.5605 91.762 10.8062 91.6885 11.0503C91.6834 11.0671 91.6663 11.0785 91.6475 11.0785ZM122.114 7.72662C122.1 7.72662 122.085 7.71976 122.077 7.70679C121.939 7.48633 121.794 7.26663 121.644 7.05304C121.631 7.0355 121.637 7.01185 121.657 7.0004C121.678 6.98973 121.704 6.9943 121.716 7.01261C121.867 7.22773 122.014 7.44895 122.151 7.67017C122.162 7.68848 122.155 7.71213 122.135 7.72205C122.128 7.7251 122.121 7.72662 122.114 7.72662ZM93.2713 7.56109C93.2636 7.56109 93.2567 7.55956 93.2499 7.55575C93.2294 7.54507 93.2226 7.52218 93.2345 7.50387C93.3763 7.28342 93.5258 7.06372 93.6795 6.85013C93.6924 6.83258 93.7188 6.82724 93.7385 6.83868C93.7581 6.85013 93.7641 6.87378 93.7513 6.89132C93.5984 7.10339 93.4489 7.32232 93.3088 7.54125C93.3012 7.55346 93.2866 7.56032 93.2721 7.56032L93.2713 7.56109ZM119.584 4.66995C119.573 4.66995 119.562 4.66614 119.554 4.65851C119.358 4.47619 119.154 4.29617 118.948 4.12377C118.931 4.10927 118.93 4.08486 118.946 4.06961C118.963 4.05435 118.99 4.05358 119.007 4.06808C119.214 4.242 119.419 4.4228 119.615 4.60588C119.631 4.62113 119.631 4.64554 119.614 4.66004C119.606 4.6669 119.596 4.67072 119.584 4.67072V4.66995ZM95.8465 4.53188C95.8354 4.53188 95.8252 4.52807 95.8166 4.5212C95.7996 4.50671 95.7996 4.4823 95.8166 4.46704C96.0157 4.28625 96.2232 4.10775 96.4325 3.93611C96.4496 3.92162 96.4769 3.92314 96.4931 3.9384C96.5094 3.95365 96.5077 3.97806 96.4906 3.99256C96.2822 4.16343 96.0763 4.34041 95.8773 4.52044C95.8687 4.52807 95.8576 4.53188 95.8465 4.53188ZM116.266 2.28534C116.258 2.28534 116.251 2.28381 116.244 2.28C116.003 2.14879 115.754 2.02064 115.505 1.89935C115.484 1.88943 115.477 1.86578 115.488 1.84748C115.499 1.82917 115.525 1.8223 115.546 1.83222C115.797 1.95351 116.046 2.08243 116.288 2.2144C116.309 2.22508 116.315 2.24872 116.303 2.26703C116.295 2.27848 116.281 2.28534 116.266 2.28534ZM99.1974 2.18617C99.1829 2.18617 99.1684 2.17931 99.1607 2.16786C99.1487 2.14956 99.1555 2.12667 99.1752 2.11523C99.4195 1.98555 99.6706 1.86044 99.9217 1.7422C99.9422 1.73229 99.9678 1.73992 99.9789 1.75822C99.9901 1.77653 99.9824 1.80018 99.961 1.8101C99.7107 1.92757 99.4613 2.05268 99.2187 2.1816C99.2119 2.18541 99.2042 2.18694 99.1965 2.18694L99.1974 2.18617ZM112.376 0.736028C112.376 0.736028 112.368 0.736029 112.364 0.734504C112.093 0.662035 111.816 0.595668 111.542 0.536167C111.519 0.53159 111.505 0.51023 111.51 0.490396C111.516 0.4698 111.538 0.457595 111.561 0.462172C111.837 0.521673 112.115 0.588802 112.388 0.661271C112.41 0.667374 112.424 0.688733 112.417 0.708566C112.412 0.725349 112.395 0.736028 112.376 0.736028ZM103.108 0.68263C103.089 0.68263 103.072 0.671951 103.067 0.655168C103.06 0.634572 103.074 0.613976 103.096 0.607873C103.369 0.538455 103.648 0.474377 103.925 0.417928C103.948 0.412588 103.971 0.426319 103.976 0.446916C103.982 0.467512 103.967 0.488109 103.944 0.492686C103.669 0.549136 103.391 0.61245 103.119 0.681104C103.115 0.681867 103.111 0.68263 103.107 0.68263H103.108ZM108.173 0.129577H108.171C107.888 0.121949 107.601 0.120423 107.32 0.125C107.297 0.125 107.277 0.108218 107.277 0.0876212C107.277 0.0662619 107.295 0.04948 107.319 0.0487172C107.601 0.0441402 107.889 0.0456657 108.175 0.053294C108.198 0.053294 108.216 0.0716023 108.216 0.0929616C108.216 0.113558 108.196 0.129577 108.173 0.129577Z" fill="#2B3467"/>
<path d="M102.801 39.079C102.801 39.079 102.794 39.079 102.791 39.0783C102.768 39.0737 102.754 39.0531 102.759 39.0325C102.826 38.7853 102.9 38.5367 102.979 38.2933C102.985 38.2727 103.009 38.2613 103.032 38.2674C103.054 38.2735 103.067 38.2941 103.061 38.3147C102.982 38.5573 102.909 38.8044 102.842 39.05C102.837 39.0676 102.82 39.079 102.8 39.079H102.801ZM104.267 35.5052C104.26 35.5052 104.254 35.5036 104.248 35.5014C104.227 35.4922 104.218 35.4693 104.229 35.4502C104.357 35.2229 104.493 34.9956 104.633 34.7751C104.645 34.7568 104.671 34.75 104.691 34.7606C104.712 34.7713 104.719 34.7942 104.707 34.8125C104.569 35.0314 104.433 35.258 104.305 35.4846C104.297 35.4975 104.283 35.5052 104.267 35.5052ZM106.627 32.3364C106.616 32.3364 106.607 32.3333 106.599 32.3272C106.581 32.3135 106.579 32.2891 106.594 32.273C106.78 32.08 106.974 31.8893 107.168 31.7055C107.185 31.6902 107.212 31.6895 107.229 31.704C107.246 31.7185 107.247 31.7429 107.231 31.7581C107.036 31.9412 106.844 32.1312 106.659 32.3226C106.651 32.3318 106.639 32.3356 106.627 32.3356V32.3364ZM109.793 29.7923C109.779 29.7923 109.766 29.7862 109.758 29.7755C109.744 29.758 109.75 29.7343 109.769 29.7229C110.005 29.5787 110.247 29.4391 110.489 29.3087C110.509 29.298 110.535 29.3033 110.548 29.3216C110.56 29.34 110.554 29.3628 110.534 29.3743C110.293 29.5047 110.052 29.6436 109.818 29.7862C109.81 29.7908 109.803 29.7931 109.794 29.7931L109.793 29.7923Z" fill="#2B3467"/>
<path d="M143.58 118.988H9.3077C9.25303 118.988 9.20776 118.948 9.20776 118.899C9.20776 118.85 9.25218 118.81 9.3077 118.81H143.58C143.635 118.81 143.68 118.849 143.68 118.899C143.68 118.948 143.636 118.988 143.58 118.988Z" fill="#161616"/>
<path d="M118.735 95.7689L104.537 100.384L109.802 113.303L124 108.688L118.735 95.7689Z" fill="#2B3467"/>
<path d="M113.04 97.6203L110.232 98.5332L111.886 102.592L114.694 101.679L113.04 97.6203Z" fill="#F5F5F5"/>
<path d="M112.948 109.025L109.45 110.162L109.92 111.316L113.418 110.179L112.948 109.025Z" fill="#F5F5F5"/>
<path d="M113.579 110.572L110.081 111.709L110.182 111.957L113.68 110.82L113.579 110.572Z" fill="#F5F5F5"/>
<path d="M117.852 81.4262L99.272 87.4656L104.537 100.385L123.117 94.3456L117.852 81.4262Z" fill="#2B3467"/>
<path d="M110.399 83.8485L106.724 85.0432L108.378 89.1019L112.053 87.9072L110.399 83.8485Z" fill="#F5F5F5"/>
<path d="M109.015 95.6727L104.438 97.1606L104.908 98.3147L109.486 96.8268L109.015 95.6727Z" fill="#F5F5F5"/>
<path d="M109.646 97.2203L105.069 98.7083L105.169 98.9556L109.747 97.4676L109.646 97.2203Z" fill="#F5F5F5"/>
<path d="M109.807 69.4105L94.0066 74.5466L99.2718 87.466L115.073 82.3299L109.807 69.4105Z" fill="#2B3467"/>
<path d="M103.47 71.4699L100.344 72.4861L101.998 76.5448L105.124 75.5285L103.47 71.4699Z" fill="#F5F5F5"/>
<path d="M102.907 83.0283L99.0129 84.2939L99.4833 85.448L103.377 84.1824L102.907 83.0283Z" fill="#F5F5F5"/>
<path d="M103.537 84.5759L99.6438 85.8416L99.7446 86.0889L103.638 84.8232L103.537 84.5759Z" fill="#F5F5F5"/>
<path d="M127.122 107.673L109.801 113.303L91.7458 69.0004C91.6621 68.7959 91.4092 68.6906 91.1803 68.7646C90.9514 68.8394 90.8335 69.0652 90.9164 69.2696L105.432 104.888L103.566 105.494C101.633 106.123 100.633 108.038 101.337 109.764L103.902 116.059L127.423 108.413C127.652 108.338 127.77 108.112 127.687 107.908C127.603 107.703 127.35 107.598 127.122 107.672V107.673ZM102.166 109.495C101.629 108.178 102.393 106.716 103.868 106.236L105.733 105.629L108.971 113.573L104.429 115.049L102.166 109.495H102.166Z" fill="#2B3467"/>
<path d="M107.562 116.968C108.436 115.293 107.625 113.302 105.75 112.521C103.874 111.74 101.645 112.465 100.771 114.14C99.8966 115.814 100.708 117.805 102.583 118.586C104.458 119.367 106.687 118.642 107.562 116.968Z" fill="#161616"/>
<path d="M105.811 115.775C105.94 114.97 105.314 114.223 104.412 114.107C103.51 113.991 102.674 114.55 102.544 115.356C102.414 116.162 103.04 116.909 103.943 117.024C104.845 117.14 105.681 116.581 105.811 115.775Z" fill="#2B3467"/>
<g style="mix-blend-mode:multiply" opacity="0.4">
<path d="M118.735 95.7695L119.077 96.6094L104.537 100.385L118.735 95.7695Z" fill="#A65B3C"/>
</g>
<g style="mix-blend-mode:multiply" opacity="0.4">
<path d="M115.164 82.2996L99.6134 88.3053L99.2717 87.4655L115.164 82.2996Z" fill="#A65B3C"/>
</g>
</svg>
