<svg width="24" height="24" viewBox="0 0 24 24" fill="none" xmlns="http://www.w3.org/2000/svg">
<path d="M12 11.5C11.337 11.5 10.7011 11.2366 10.2322 10.7678C9.76339 10.2989 9.5 9.66304 9.5 9C9.5 8.33696 9.76339 7.70107 10.2322 7.23223C10.7011 6.76339 11.337 6.5 12 6.5C12.663 6.5 13.2989 6.76339 13.7678 7.23223C14.2366 7.70107 14.5 8.33696 14.5 9C14.5 9.3283 14.4353 9.65339 14.3097 9.95671C14.1841 10.26 13.9999 10.5356 13.7678 10.7678C13.5356 10.9999 13.26 11.1841 12.9567 11.3097C12.6534 11.4353 12.3283 11.5 12 11.5ZM12 2C10.1435 2 8.36301 2.7375 7.05025 4.05025C5.7375 5.36301 5 7.14348 5 9C5 14.25 12 22 12 22C12 22 19 14.25 19 9C19 7.14348 18.2625 5.36301 16.9497 4.05025C15.637 2.7375 13.8565 2 12 2Z" fill="#161616"/>
<circle cx="12" cy="9" r="4" fill="white"/>
<path d="M9.33325 11.4667L11.6433 6.33337H12.5819L14.8993 11.4667H13.9019L11.9146 6.83937H12.2959L10.3159 11.4667H9.33325ZM10.3966 10.2787L10.6533 9.53071H13.4253L13.6819 10.2787H10.3966Z" fill="#2B3467"/>
</svg>
