<svg width="24" height="24" viewBox="0 0 24 24" fill="none" xmlns="http://www.w3.org/2000/svg">
<path d="M12 11.5C11.337 11.5 10.7011 11.2366 10.2322 10.7678C9.76339 10.2989 9.5 9.66304 9.5 9C9.5 8.33696 9.76339 7.70107 10.2322 7.23223C10.7011 6.76339 11.337 6.5 12 6.5C12.663 6.5 13.2989 6.76339 13.7678 7.23223C14.2366 7.70107 14.5 8.33696 14.5 9C14.5 9.3283 14.4353 9.65339 14.3097 9.95671C14.1841 10.26 13.9999 10.5356 13.7678 10.7678C13.5356 10.9999 13.26 11.1841 12.9567 11.3097C12.6534 11.4353 12.3283 11.5 12 11.5ZM12 2C10.1435 2 8.36301 2.7375 7.05025 4.05025C5.7375 5.36301 5 7.14348 5 9C5 14.25 12 22 12 22C12 22 19 14.25 19 9C19 7.14348 18.2625 5.36301 16.9497 4.05025C15.637 2.7375 13.8565 2 12 2Z" fill="#EA455F"/>
<circle cx="12" cy="9" r="4" fill="white"/>
<path d="M10 11.4667V6.33337H12.4053C13.0213 6.33337 13.4907 6.4556 13.8133 6.70004C14.136 6.9396 14.2973 7.26226 14.2973 7.66804C14.2973 7.94182 14.2338 8.17649 14.1067 8.37204C13.9796 8.56271 13.8084 8.71182 13.5933 8.81937C13.3831 8.92204 13.1533 8.97337 12.904 8.97337L13.036 8.70937C13.3244 8.70937 13.5836 8.76315 13.8133 8.87071C14.0431 8.97337 14.224 9.12493 14.356 9.32537C14.4929 9.52582 14.5613 9.77515 14.5613 10.0734C14.5613 10.5134 14.3927 10.8556 14.0553 11.1C13.718 11.3445 13.2169 11.4667 12.552 11.4667H10ZM10.9533 10.7187H12.4933C12.8502 10.7187 13.124 10.66 13.3147 10.5427C13.5053 10.4254 13.6007 10.2372 13.6007 9.97804C13.6007 9.72382 13.5053 9.53804 13.3147 9.42071C13.124 9.29849 12.8502 9.23737 12.4933 9.23737H10.88V8.49671H12.3027C12.6351 8.49671 12.8893 8.43804 13.0653 8.32071C13.2462 8.20337 13.3367 8.02737 13.3367 7.79271C13.3367 7.55315 13.2462 7.37471 13.0653 7.25737C12.8893 7.14004 12.6351 7.08137 12.3027 7.08137H10.9533V10.7187Z" fill="#EA455F"/>
</svg>
