<svg width="79" height="24" viewBox="0 0 79 24" fill="none" xmlns="http://www.w3.org/2000/svg">
<path d="M38.6596 3.45483V10.0275C38.9315 9.59721 39.2075 9.25213 39.4875 8.99231C39.7675 8.72842 40.0516 8.53762 40.3438 8.40771C40.632 8.28185 40.9079 8.1966 41.1717 8.156C41.4355 8.1154 41.6831 8.09511 41.9184 8.09511C42.7342 8.09511 43.3876 8.22908 43.8867 8.50108C44.3859 8.77308 44.7593 9.11816 45.0109 9.53631C45.2625 9.95852 45.433 10.4173 45.5141 10.9166C45.5953 11.416 45.6359 11.895 45.6359 12.3578C45.6359 12.642 45.6278 12.9587 45.6075 13.2997C45.5912 13.6407 45.5709 13.9898 45.5547 14.3471C45.5385 14.7043 45.5182 15.0616 45.5019 15.4189C45.4857 15.7761 45.4735 16.105 45.4735 16.4054C45.4735 16.5312 45.4817 16.7099 45.5019 16.9413C45.5182 17.1727 45.5669 17.3959 45.6359 17.6192C45.7089 17.8425 45.8266 18.0374 45.9889 18.2038C46.1513 18.3703 46.3867 18.4555 46.6951 18.4555C47.109 18.4555 47.4865 18.2485 47.8193 17.8385C48.152 17.4244 48.428 16.7667 48.6472 15.8614H49.6496C49.4507 16.8601 49.1991 17.6517 48.8907 18.2282C48.5822 18.8087 48.2576 19.2472 47.9126 19.5476C47.5676 19.848 47.2267 20.0429 46.8818 20.1322C46.5368 20.2175 46.2203 20.2621 45.9321 20.2621C45.3518 20.2621 44.8648 20.1647 44.4671 19.9658C44.0694 19.7668 43.7447 19.5029 43.489 19.17C43.2374 18.8372 43.0507 18.4474 42.933 18.0049C42.8153 17.5624 42.7585 17.0996 42.7585 16.6246C42.7585 16.4825 42.7626 16.2146 42.7707 15.8289C42.7788 15.4392 42.7869 15.0251 42.7991 14.5785C42.8072 14.136 42.8153 13.7138 42.8275 13.3159C42.8356 12.9181 42.8397 12.642 42.8397 12.4837C42.8397 11.9762 42.795 11.554 42.7058 11.2211C42.6165 10.8882 42.4907 10.6243 42.3243 10.4335C42.1619 10.2427 41.9753 10.1087 41.7683 10.0275C41.5613 9.94634 41.3381 9.9098 41.1027 9.9098C40.5427 9.9098 40.0597 10.1087 39.6498 10.5066C39.244 10.9044 38.9112 11.5702 38.6596 12.508V20.1281H35.9446V3.78773L38.6596 3.45483Z" fill="#2B3467"/>
<path d="M48.1558 4.78639C48.1558 4.35606 48.3262 3.98663 48.6712 3.66591C49.0161 3.34925 49.4382 3.19092 49.9455 3.19092C50.4325 3.19092 50.8586 3.34925 51.2198 3.66591C51.581 3.98257 51.7636 4.35606 51.7636 4.78639C51.7636 5.2289 51.581 5.6024 51.2198 5.90688C50.8586 6.2073 50.4325 6.35751 49.9455 6.35751C49.4382 6.35751 49.0121 6.2073 48.6712 5.90688C48.3262 5.60646 48.1558 5.23296 48.1558 4.78639ZM51.3537 8.21687V16.312C51.3537 16.4703 51.3618 16.6692 51.3821 16.9087C51.3984 17.1483 51.4511 17.3797 51.5323 17.6111C51.6135 17.8425 51.7352 18.0414 51.8975 18.2079C52.0599 18.3743 52.2871 18.4596 52.5753 18.4596C53.46 18.4596 54.1134 17.5948 54.5273 15.8654H55.5297C55.3309 16.8641 55.0793 17.6557 54.7708 18.2322C54.4624 18.8128 54.1377 19.2512 53.7928 19.5516C53.4478 19.8521 53.0947 20.0469 52.7336 20.1362C52.3724 20.2215 52.0477 20.2661 51.7555 20.2661C51.1224 20.2661 50.607 20.1606 50.2093 19.9454C49.8116 19.7303 49.495 19.4583 49.2596 19.1254C49.0242 18.7925 48.8619 18.419 48.7726 18.0049C48.6833 17.5908 48.6387 17.197 48.6387 16.8154V8.21687H51.3537Z" fill="#2B3467"/>
<path d="M54.5274 3.78773L57.214 3.45483L57.2425 9.09786C57.5509 8.82992 57.9121 8.60663 58.326 8.43206C58.74 8.25749 59.2392 8.16818 59.8195 8.16818C60.3065 8.16818 60.8138 8.24532 61.3373 8.39553C61.8608 8.54574 62.3519 8.81368 62.8024 9.19123C63.2528 9.57285 63.6262 10.0966 63.9144 10.7623C64.2025 11.4281 64.3486 12.2766 64.3486 13.3078C64.3486 14.2131 64.2268 15.086 63.9833 15.9263C63.7398 16.7667 63.3665 17.5096 62.8714 18.1511C62.3722 18.7925 61.7553 19.304 61.0126 19.6856C60.27 20.0672 59.4015 20.2581 58.4072 20.2581C57.8471 20.2581 57.3277 20.1809 56.8488 20.0307C56.3699 19.8805 55.956 19.6329 55.6151 19.2918C55.2701 18.9508 54.9982 18.5002 54.7993 17.9359C54.6005 17.3716 54.499 16.6774 54.499 15.8533L54.5274 3.78773ZM61.9379 13.8599C61.9379 13.2428 61.873 12.6623 61.7472 12.1224C61.6214 11.5824 61.4347 11.1115 61.1872 10.7055C60.9396 10.2995 60.6393 9.98288 60.2862 9.75147C59.9331 9.52007 59.5273 9.4064 59.0728 9.4064C58.7075 9.4064 58.3707 9.48353 58.0622 9.63374C57.7538 9.78395 57.4697 9.97882 57.2181 10.2183V16.4784C57.2181 17.9075 57.7538 18.622 58.8293 18.622C59.3366 18.622 59.787 18.4921 60.1807 18.2282C60.5703 17.9643 60.899 17.6152 61.1628 17.1686C61.4266 16.7261 61.6214 16.2146 61.7513 15.6462C61.873 15.0738 61.9379 14.477 61.9379 13.8599Z" fill="#2B3467"/>
<path d="M75.854 8.21694V16.312C75.854 16.5029 75.8621 16.7221 75.8824 16.9657C75.8987 17.2133 75.9514 17.4447 76.0326 17.668C76.1138 17.8913 76.2396 18.078 76.4141 18.2282C76.5845 18.3785 76.8361 18.4556 77.1608 18.4556C77.3069 18.4556 77.4652 18.4393 77.6356 18.4069C77.8061 18.3744 77.9481 18.3419 78.0577 18.3135C78.0739 18.3947 78.0902 18.4637 78.0983 18.5287C78.1064 18.5936 78.1105 18.6626 78.1105 18.7438C78.1105 19.2188 77.9035 19.5923 77.4855 19.8643C77.0675 20.1323 76.6008 20.2703 76.0732 20.2703C75.5131 20.2703 75.0058 20.0998 74.5554 19.7588C74.1049 19.4177 73.7964 18.8413 73.6341 18.0334C73.3622 18.6505 72.9198 19.1782 72.303 19.6167C71.6861 20.0551 70.9475 20.2703 70.079 20.2703C69.5352 20.2703 68.9873 20.1729 68.4394 19.9739C67.8875 19.775 67.3965 19.4624 66.9622 19.0321C66.528 18.6017 66.1708 18.0496 65.8908 17.3676C65.6108 16.6855 65.4688 15.8614 65.4688 14.8911C65.4688 14.1442 65.5621 13.3728 65.7528 12.569C65.9436 11.7692 66.2398 11.0385 66.6497 10.3767C67.0556 9.71904 67.5872 9.17504 68.2365 8.74471C68.8859 8.31438 69.6651 8.10327 70.5701 8.10327C71.0408 8.10327 71.5238 8.18853 72.023 8.35903C72.5221 8.52954 72.8955 8.85838 73.1471 9.34149V8.221H75.854V8.21694ZM70.6472 18.4515C70.9921 18.4515 71.3168 18.3784 71.6252 18.2364C71.9337 18.0943 72.1975 17.9035 72.4247 17.6639C72.652 17.4244 72.8265 17.1524 72.9523 16.8398C73.0781 16.5313 73.1431 16.1984 73.1431 15.8492V10.4092C73.0172 10.1372 72.8265 9.90173 72.5749 9.69469C72.3233 9.48764 71.958 9.38615 71.4913 9.38615C70.911 9.38615 70.424 9.55666 70.0263 9.89767C69.6285 10.2387 69.3039 10.6731 69.0482 11.1968C68.7966 11.7205 68.6099 12.3051 68.4922 12.9506C68.3745 13.5961 68.3177 14.2132 68.3177 14.8018C68.3177 16.0928 68.545 17.0225 68.9954 17.5949C69.4419 18.1673 69.9938 18.4515 70.6472 18.4515Z" fill="#2B3467"/>
<path d="M28.9258 5.29784C30.1433 8.21679 29.5062 10.9612 27.5338 14.3348C25.5615 17.7125 21.8927 21.7763 18.1631 23.2094C16.0609 24.0173 12.4774 23.7128 10.7607 22.4055C11.7185 23.1079 13.0415 23.0754 14.4011 22.7547C15.2655 22.572 16.1543 22.2594 16.9781 21.9387C19.8433 20.8223 23.9097 16.9452 25.8293 13.6122C27.7489 10.2832 28.6742 7.67685 26.8845 3.75921C26.3244 2.53723 25.3423 1.60349 24.1532 1.02295C26.3894 1.97699 28.2684 3.73079 28.9258 5.29784Z" fill="#EA455F"/>
<path d="M26.8765 3.7593C28.6662 7.67694 27.7409 10.2833 25.8213 13.6123C23.9017 16.9412 19.8353 20.8183 16.9701 21.9388C16.1463 22.2595 15.2575 22.5721 14.3931 22.7548C15.1844 22.568 15.9839 22.2798 16.7347 21.9875C19.5999 20.8629 23.6664 16.9737 25.5859 13.6326C27.5055 10.2914 28.4308 7.681 26.6411 3.74712C25.8497 2.00144 24.1899 0.840355 22.2987 0.45874C22.9277 0.580532 23.5487 0.775399 24.1452 1.0271C25.3343 1.60358 26.3205 2.54138 26.8765 3.7593Z" fill="#EA455F"/>
<path d="M26.6451 3.74712C28.4348 7.68099 27.5095 10.2955 25.59 13.6326C23.6704 16.9737 19.6039 20.8629 16.7387 21.9875C15.9879 22.2798 15.1885 22.564 14.3971 22.7548C13.1228 23.0268 11.8971 23.0187 10.9921 22.3569C10.9881 22.3529 10.9881 22.3569 10.9881 22.3569C10.9475 22.3244 10.9069 22.296 10.8663 22.2635C10.8501 22.2514 10.8339 22.2392 10.8176 22.2229C10.8055 22.2148 10.7973 22.2067 10.7852 22.1945C10.0384 21.4678 9.72594 20.4813 9.83552 19.1903C10.079 18.1307 10.9029 17.1239 12.4694 15.5569C12.5952 15.4107 12.7291 15.2646 12.863 15.1062C13.6625 14.0345 14.0115 12.6663 14.2145 10.8679C14.2834 10.2508 14.3362 9.58095 14.389 8.85426C14.3849 8.4564 14.3849 7.96112 14.4011 7.29126C14.4011 7.22224 14.4011 7.15323 14.4011 7.08421C14.4214 6.73102 14.4458 6.36564 14.4701 5.99215C14.4904 5.69173 14.531 5.40349 14.5878 5.13554C14.5919 5.1193 14.5959 5.09901 14.6 5.08277C14.7948 4.36013 15.1073 3.69434 15.5375 3.10162C16.4384 1.9446 17.4084 1.35187 18.1267 0.97026C18.8247 0.604884 19.7054 0.462794 20.4196 0.385659C20.4805 0.381599 20.5414 0.373479 20.6023 0.36942C20.6916 0.36536 20.7808 0.357241 20.8701 0.353181C20.9594 0.349121 21.0487 0.349121 21.138 0.349121C21.2273 0.349121 21.3165 0.353181 21.4058 0.353181C21.4464 0.353181 21.491 0.353181 21.5316 0.357241C21.6168 0.3613 21.7061 0.36942 21.7954 0.377539C22.0024 0.397838 22.2134 0.426256 22.4245 0.462794C22.461 0.466853 22.4975 0.474973 22.53 0.483092C23.0941 0.596765 23.6379 0.779453 24.1411 1.0271C23.5446 0.775393 22.9277 0.580526 22.2946 0.458734C24.1898 0.840348 25.8497 2.00549 26.6451 3.74712ZM23.9342 6.85687C23.9342 5.52122 22.8506 4.43321 21.5154 4.43321C20.1802 4.43321 19.0926 5.51716 19.0926 6.85687C19.0926 8.19658 20.1761 9.27647 21.5154 9.27647C22.8546 9.27647 23.9342 8.19252 23.9342 6.85687Z" fill="#EA455F"/>
<path d="M14.4049 7.08008C14.4049 7.14909 14.4049 7.21811 14.4049 7.28712C14.3928 7.95698 14.3928 8.45227 14.3928 8.85012C14.3441 9.57681 14.2913 10.2467 14.2183 10.8637C14.3319 9.88535 14.3644 8.85824 14.3562 7.85955C14.3725 7.60784 14.3887 7.34802 14.4049 7.08008Z" fill="#EA455F"/>
<path d="M14.4052 7.08019C14.3889 7.34407 14.3727 7.60389 14.3565 7.85966C14.3646 8.85835 14.3362 9.88546 14.2185 10.8639C14.1576 11.3957 14.0683 11.9194 13.9425 12.4147C13.9385 12.4472 13.9304 12.4796 13.9263 12.5162C13.3865 15.4717 10.0222 17.3067 9.84767 19.1011L9.83956 19.1863C9.80709 19.3284 9.7868 19.4664 9.77462 19.6126C9.74621 19.9374 9.77056 20.2418 9.82332 20.5138C9.82332 20.5179 9.82332 20.5179 9.82738 20.522C9.85173 20.6397 9.87608 20.7452 9.91261 20.8508C9.93696 20.9198 9.96131 20.9888 9.98566 21.0538C10.0262 21.1634 10.0749 21.2649 10.1236 21.3583C10.217 21.545 10.3225 21.7033 10.4118 21.8292C10.4118 21.8333 10.4158 21.8333 10.4158 21.8333C10.497 21.9469 10.5701 22.0281 10.6228 22.089C10.6512 22.1174 10.6715 22.1377 10.6837 22.154C10.6877 22.158 10.6959 22.1621 10.6959 22.1661C10.6999 22.1702 10.708 22.1743 10.708 22.1743C10.7608 22.2311 10.8176 22.2839 10.8744 22.3326C10.8825 22.3448 10.8947 22.3529 10.9069 22.361C11.0327 22.4828 11.1707 22.5965 11.3208 22.702C9.17805 21.6871 4.21471 16.7058 2.29512 13.3768C0.375528 10.0479 -0.245396 7.34001 0.939636 4.46166C2.12467 1.58331 6.6213 -0.64142 9.89231 0.795725C12.8305 2.08672 14.3849 4.19778 14.4052 7.08019Z" fill="#EA455F"/>
<path d="M14.2185 10.8638C14.0156 12.6622 13.6666 14.0304 12.8671 15.1021C12.7291 15.2605 12.5993 15.4066 12.4735 15.5528C10.9069 17.1198 10.0831 18.1266 9.8396 19.1862L9.84772 19.101C10.0222 17.3066 13.3866 15.4716 13.9263 12.5161C13.9304 12.4795 13.9385 12.4471 13.9426 12.4146C14.0684 11.9193 14.1577 11.3997 14.2185 10.8638Z" fill="#EA455F"/>
<path fill-rule="evenodd" clip-rule="evenodd" d="M4.78012 1.32666C3.15641 2.03783 1.81618 3.25843 1.26663 4.59324C0.140172 7.32932 0.706955 9.91824 2.60196 13.2046C3.54097 14.833 5.23913 16.8868 6.97891 18.6661C7.84668 19.5535 8.71921 20.367 9.50493 21.0196C9.55528 21.0614 9.6052 21.1025 9.65467 21.1429C9.63321 21.0846 9.61204 21.0247 9.59183 20.9674L9.59094 20.9648L9.59059 20.9638C9.55114 20.8498 9.52462 20.739 9.50155 20.6303C9.49323 20.6062 9.48852 20.584 9.48584 20.5651C9.4297 20.2694 9.40396 19.9378 9.43489 19.5834C9.44826 19.4232 9.47078 19.2692 9.50718 19.1098C9.77163 17.9405 10.6705 16.8692 12.2247 15.3218C12.2997 15.2347 12.3776 15.1461 12.4565 15.0561C12.5048 15.0011 12.5535 14.9456 12.6023 14.8897C13.34 13.895 13.6793 12.6057 13.8797 10.8294L13.8798 10.8284L13.8799 10.8275C13.9515 10.2225 14.0036 9.56343 14.052 8.8429C14.052 8.44722 14.0521 7.9534 14.0642 7.28833V7.08563C14.0543 5.70767 13.6796 4.53001 12.9678 3.54387C12.2538 2.5548 11.1863 1.73871 9.76162 1.11184C8.23915 0.442931 6.40121 0.616637 4.78012 1.32666ZM10.9189 21.8901L10.9263 21.8938L10.9689 21.9396C11.0103 21.9843 11.057 22.0279 11.107 22.0708L11.1267 22.0877L11.1323 22.0914L11.1421 22.1009L11.1431 22.1017L11.1433 22.1021L11.1548 22.1132C11.2671 22.2219 11.3911 22.3242 11.5272 22.4199L11.1813 23.0141C10.6053 22.7413 9.86634 22.2169 9.06418 21.5506C8.25662 20.8798 7.36657 20.0495 6.48571 19.1487C4.72822 17.3513 2.98491 15.25 2.00434 13.5494C0.06016 10.1778 -0.614907 7.35104 0.628699 4.33042C1.26418 2.78689 2.76479 1.45595 4.5034 0.694449C6.24464 -0.0681956 8.29052 -0.288283 10.0391 0.47995L10.0392 0.480023C11.5486 1.14414 12.7253 2.02905 13.5271 3.13984C14.3309 4.25331 14.7435 5.57401 14.7541 7.08199L14.7541 7.0832V7.2946L14.754 7.29774C14.7419 7.9643 14.7419 8.45698 14.7419 8.85446V8.86601L14.7412 8.87754C14.6924 9.60548 14.6392 10.282 14.5652 10.9076C14.3604 12.7217 14.0033 14.1656 13.1475 15.3128L13.1397 15.3233L13.1311 15.3332C13.0756 15.3968 13.0226 15.4572 12.9711 15.5159C12.8913 15.6068 12.815 15.6937 12.7388 15.7822L12.7301 15.7923L12.7207 15.8017C11.1398 17.375 10.394 18.3153 10.18 19.2626L10.1799 19.263L10.1798 19.2634C10.1514 19.3878 10.1333 19.5096 10.1224 19.6414L10.1223 19.6421L10.1222 19.6428C10.0999 19.8982 10.1142 20.1404 10.1505 20.3619L10.1692 20.4522C10.1927 20.5662 10.2134 20.6537 10.2422 20.7371C10.2667 20.8064 10.2898 20.8718 10.3126 20.9328L10.3129 20.9334L10.3131 20.9341C10.3467 21.0249 10.3883 21.1123 10.4334 21.1988L10.4348 21.2014L10.4361 21.2041C10.4892 21.3102 10.5471 21.4067 10.6045 21.4927L10.7046 21.6328C10.7663 21.7192 10.8213 21.7824 10.8718 21.8405C10.8756 21.8448 10.8794 21.8492 10.8831 21.8535C10.8929 21.8632 10.9055 21.8759 10.9189 21.8901ZM10.0756 20.2785C10.0747 20.2775 10.0741 20.277 10.0743 20.2771C10.0744 20.2772 10.0747 20.2776 10.0753 20.2781L10.0756 20.2785ZM10.1722 20.5114C10.1723 20.5143 10.1723 20.5159 10.1723 20.5156C10.1723 20.5155 10.1722 20.515 10.1722 20.514V20.5114Z" fill="#2B3467"/>
<path fill-rule="evenodd" clip-rule="evenodd" d="M21.1419 0.690154C21.0514 0.690154 20.9699 0.690213 20.8898 0.693858C20.8497 0.695681 20.8089 0.698445 20.7636 0.701534L20.7619 0.70165C20.7196 0.704538 20.6731 0.70771 20.6259 0.709913C20.6031 0.711501 20.5792 0.713863 20.5493 0.71686L20.5471 0.717077C20.52 0.719785 20.4876 0.72303 20.454 0.725412C19.7461 0.802162 18.9256 0.939869 18.2915 1.27148C17.5963 1.64091 16.6751 2.20494 15.8172 3.30501C15.4154 3.85984 15.122 4.4841 14.9381 5.1647C14.9374 5.16764 14.9364 5.17209 14.9346 5.17996L14.9343 5.18135C14.9328 5.18802 14.9306 5.19793 14.9282 5.20821C14.8754 5.45833 14.8374 5.72854 14.8183 6.01105C14.8149 6.06334 14.8115 6.11543 14.8081 6.16731C14.7872 6.48654 14.7669 6.79773 14.7495 7.09997L14.7495 7.10051L14.7494 7.10105C14.7334 7.36498 14.7175 7.6211 14.7015 7.86938C14.7093 8.87264 14.6764 9.91048 14.5611 10.9037L14.561 10.9045L14.5609 10.9054C14.4954 11.446 14.4052 11.974 14.2816 12.4802C14.279 12.4967 14.2763 12.5115 14.2745 12.5214L14.2737 12.5256C14.2707 12.5421 14.2697 12.549 14.2691 12.5543L14.2677 12.5663L14.2656 12.5782C13.9765 14.1611 12.9357 15.4236 12.0079 16.4731C11.9155 16.5775 11.8246 16.6796 11.7355 16.7795C11.3668 17.193 11.0297 17.5712 10.7581 17.9379C10.4198 18.3946 10.2223 18.7841 10.1869 19.1385C10.1869 19.1388 10.1868 19.139 10.1868 19.1392L10.1792 19.2195C10.1791 19.2201 10.1791 19.2207 10.179 19.2213C10.0763 20.4351 10.3706 21.3093 11.0249 21.9465L11.0373 21.9548L11.0597 21.9772C11.0601 21.9775 11.0606 21.9779 11.0612 21.9784C11.0619 21.9789 11.0627 21.9796 11.0638 21.9804C11.0663 21.9823 11.0689 21.9843 11.0732 21.9875L11.0775 21.9907L11.0817 21.9941C11.0972 22.0064 11.1132 22.0185 11.1341 22.0342L11.1355 22.0352C11.1453 22.0426 11.1563 22.0508 11.1679 22.0597C11.1813 22.0678 11.193 22.076 11.2027 22.0835C11.9849 22.6508 13.0817 22.6827 14.325 22.4173L14.3257 22.4172C15.1622 22.2404 16.0301 21.936 16.8443 21.6174L16.8444 21.6174C18.2172 21.0805 19.9123 19.8654 21.5133 18.3528C23.1102 16.8442 24.5833 15.0685 25.5224 13.4399C26.4779 11.7829 27.1619 10.3445 27.3991 8.85235C27.6343 7.37241 27.4339 5.81019 26.5628 3.90312C26.0396 2.76153 25.1194 1.88269 23.9938 1.33317L23.9933 1.33293L23.9928 1.33269C23.5175 1.09876 23.0021 0.925388 22.4658 0.81733L22.458 0.815756L22.4503 0.813822C22.4228 0.806943 22.4038 0.803217 22.3903 0.801716L22.3799 0.800559L22.3696 0.798771C22.1674 0.763758 21.9651 0.736513 21.7669 0.717045C21.6766 0.708833 21.5953 0.70151 21.5192 0.697883L21.5102 0.697455L21.5013 0.696561C21.4809 0.694524 21.454 0.694214 21.4098 0.694214C21.3612 0.694214 21.3133 0.693124 21.2697 0.692134L21.268 0.692095C21.2227 0.691065 21.182 0.690154 21.1419 0.690154ZM10.5424 22.4398C9.70567 21.6242 9.3758 20.5268 9.49171 19.1611L9.49186 19.1594L9.50021 19.0717L9.50028 19.071C9.55436 18.5263 9.84429 18.0123 10.2037 17.527C10.4959 17.1326 10.8599 16.7244 11.2304 16.309C11.3172 16.2117 11.4044 16.1139 11.491 16.0159C12.4227 14.962 13.3318 13.8322 13.5851 12.4641C13.5883 12.4386 13.5923 12.4166 13.595 12.4022C13.5987 12.3818 13.5996 12.3764 13.6002 12.3719L13.6027 12.3518L13.6075 12.3323C13.7252 11.8533 13.8123 11.3479 13.8759 10.8231C13.9872 9.86392 14.0195 8.85238 14.0115 7.86244L14.0114 7.84992L14.0122 7.83742C14.0284 7.58639 14.0446 7.32722 14.0607 7.05992C14.0783 6.75487 14.0988 6.44077 14.1197 6.12188C14.1231 6.06992 14.1265 6.01784 14.1299 5.96564L14.1299 5.96524L14.1299 5.96484C14.1513 5.64854 14.1941 5.34414 14.2543 5.05989L14.2556 5.05382L14.2571 5.04781C14.2579 5.04494 14.2589 5.0405 14.2611 5.03026C14.2629 5.02223 14.266 5.0084 14.2693 4.99503L14.2701 4.99195L14.2709 4.98888C14.4761 4.22764 14.8062 3.52322 15.2623 2.89484L15.2657 2.89012L15.2693 2.88552C16.2118 1.67508 17.2286 1.05474 17.9689 0.661451L17.9698 0.660955L17.9707 0.660466C18.7306 0.262708 19.6678 0.116153 20.3866 0.038531L20.3936 0.0377721L20.4007 0.0373019C20.4245 0.0357155 20.4492 0.0332714 20.4806 0.0301307L20.4828 0.0299138C20.5118 0.0270048 20.5471 0.023476 20.5833 0.021063L20.5869 0.0208203L20.5906 0.0206546C20.6307 0.0188319 20.6714 0.0160679 20.7167 0.0129785L20.7184 0.0128624C20.7619 0.00989277 20.8099 0.00662381 20.8584 0.00441561C20.9556 -1.60553e-06 21.0515 -7.53789e-07 21.1385 2.0543e-08H21.1419C21.1905 2.0543e-08 21.2385 0.0010902 21.282 0.00208019L21.2837 0.00211894C21.329 0.00314873 21.3697 0.00405969 21.4098 0.00405969L21.4149 0.00405841C21.4502 0.00404552 21.5052 0.00402535 21.5601 0.00890763C21.6503 0.0134318 21.7427 0.0218413 21.827 0.0295067L21.8318 0.0299456L21.833 0.0300646C22.0454 0.0508941 22.2618 0.0799236 22.4782 0.117161C22.529 0.123524 22.5753 0.133855 22.6096 0.142293C23.1987 0.261643 23.7681 0.453022 24.2968 0.713116C25.5492 1.32469 26.5931 2.31326 27.1899 3.6155L27.1901 3.61588C28.1085 5.62628 28.3403 7.32594 28.0804 8.96073C27.8225 10.5834 27.0841 12.1127 26.12 13.7847C25.1395 15.4851 23.6196 17.3123 21.987 18.8546C20.3587 20.393 18.5879 21.6766 17.0956 22.2602C16.2705 22.583 15.3611 22.9037 14.469 23.0923C13.3865 23.3233 12.2693 23.3737 11.3329 22.9519L11.3329 23.0749L10.7725 22.6264C10.7571 22.6141 10.7411 22.602 10.7201 22.5863L10.7187 22.5852C10.7005 22.5716 10.6783 22.5549 10.6554 22.5367C10.6426 22.5271 10.6201 22.5102 10.5952 22.4875C10.5699 22.4675 10.5519 22.4494 10.5434 22.4408L10.5424 22.4398Z" fill="#2B3467"/>
<path fill-rule="evenodd" clip-rule="evenodd" d="M22.2303 0.797005L22.3637 0.119873C23.023 0.246704 23.6629 0.449159 24.2791 0.70915L24.2795 0.709306C26.5817 1.68381 28.5427 3.49648 29.2401 5.16912C30.5176 8.23197 29.8248 11.0968 27.8275 14.5132C26.8283 16.2258 25.4006 18.1089 23.7498 19.7469C22.1014 21.3826 20.2124 22.7917 18.2868 23.5316C17.1709 23.9604 15.6918 24.0862 14.2827 23.9441C12.8773 23.8023 11.4809 23.3878 10.5518 22.6802L10.9646 22.1273C11.7936 22.7352 12.9833 22.7347 14.3218 22.4189C15.0891 22.2379 15.8704 21.9568 16.6176 21.6659C17.9902 21.1269 19.6849 19.908 21.2856 18.3908C22.8825 16.8771 24.3556 15.0953 25.2948 13.4606C26.2503 11.7975 26.9345 10.3549 27.1718 8.85808C27.4071 7.37337 27.2066 5.80587 26.3353 3.89053C25.5886 2.26041 24.0304 1.16024 22.2303 0.797005ZM26.595 2.92505C27.5446 3.71753 28.2612 4.61427 28.6034 5.43484L28.6034 5.43488C29.7608 8.20992 29.1793 10.8339 27.2319 14.1648L27.2318 14.165C26.2627 15.826 24.8719 17.6614 23.264 19.2569C21.6536 20.8548 19.8434 22.1942 18.0394 22.8873C17.0531 23.2664 15.6893 23.3923 14.3519 23.2574C14.2088 23.243 14.0667 23.2256 13.926 23.2054C14.1114 23.1727 14.2965 23.134 14.4802 23.0906C15.2957 22.8982 16.1134 22.6028 16.8678 22.3091L16.8687 22.3087C18.3611 21.723 20.1318 20.4352 21.7601 18.8917C23.3927 17.3443 24.9126 15.511 25.893 13.8045C26.857 12.1265 27.5953 10.5933 27.8532 8.96615C28.113 7.32702 27.8813 5.62251 26.963 3.60418L26.9627 3.6034C26.8543 3.36683 26.7313 3.14058 26.595 2.92505Z" fill="#2B3467"/>
<path fill-rule="evenodd" clip-rule="evenodd" d="M21.5153 4.77829C20.367 4.77829 19.4375 5.71142 19.4375 6.85687C19.4375 8.00119 20.3699 8.93139 21.5153 8.93139C22.66 8.93139 23.5891 8.00194 23.5891 6.85687C23.5891 5.70699 22.6633 4.77829 21.5153 4.77829ZM18.7476 6.85687C18.7476 5.33102 19.9852 4.08813 21.5153 4.08813C23.0459 4.08813 24.2791 5.32733 24.2791 6.85687C24.2791 8.3831 23.041 9.62155 21.5153 9.62155C19.9904 9.62155 18.7476 8.38386 18.7476 6.85687Z" fill="#2B3467"/>
</svg>
