<svg width="24" height="24" viewBox="0 0 24 24" fill="none" xmlns="http://www.w3.org/2000/svg">
<path d="M17.3333 10.8274C16.8939 10.9422 16.4545 11.0128 16.0151 11.0128C13.3524 11.0128 11.1818 8.83151 11.1818 6.15567C11.1818 4.85748 11.6915 3.68294 12.5 2.80865C12.1924 2.42891 11.7179 2.18164 11.1818 2.18164C10.2151 2.18164 9.42422 2.97645 9.42422 3.94787V4.20398C6.81422 4.98112 5.03028 7.39203 5.03028 10.1297V15.4284L3.27271 17.1946V18.0777H19.0909V17.1946L17.3333 15.4284V10.8274ZM11.1818 20.7271C12.1573 20.7271 12.9394 19.9411 12.9394 18.9609H9.42422C9.42422 19.9411 10.2151 20.7271 11.1818 20.7271Z" fill="#EA455F"/>
<circle cx="16.5908" cy="5.68164" r="3.5" fill="#EA455F"/>
</svg>
