<svg width="24" height="24" viewBox="0 0 24 24" fill="none" xmlns="http://www.w3.org/2000/svg">
<path d="M20.1818 17.7403V18.6234H4.36365V17.7403L6.12122 15.974V10.6753C6.12122 7.93768 7.90516 5.52678 10.5152 4.74963C10.5152 4.66132 10.5152 4.58184 10.5152 4.49353C10.5152 4.02509 10.7003 3.57585 11.0299 3.24461C11.3596 2.91338 11.8066 2.72729 12.2727 2.72729C12.7389 2.72729 13.1859 2.91338 13.5155 3.24461C13.8451 3.57585 14.0303 4.02509 14.0303 4.49353C14.0303 4.58184 14.0303 4.66132 14.0303 4.74963C16.6403 5.52678 18.4243 7.93768 18.4243 10.6753V15.974L20.1818 17.7403ZM14.0303 19.5065C14.0303 19.9749 13.8451 20.4242 13.5155 20.7554C13.1859 21.0867 12.7389 21.2727 12.2727 21.2727C11.8066 21.2727 11.3596 21.0867 11.0299 20.7554C10.7003 20.4242 10.5152 19.9749 10.5152 19.5065" fill="#898A8D"/>
</svg>
