<svg width="24" height="24" viewBox="0 0 24 24" fill="none" xmlns="http://www.w3.org/2000/svg">
<path d="M20.1818 17.74V18.6232H4.36365V17.74L6.12122 15.9738V10.6751C6.12122 7.93744 7.90516 5.52653 10.5152 4.74939C10.5152 4.66108 10.5152 4.5816 10.5152 4.49328C10.5152 4.02485 10.7003 3.5756 11.0299 3.24437C11.3596 2.91314 11.8066 2.72705 12.2727 2.72705C12.7389 2.72705 13.1859 2.91314 13.5155 3.24437C13.8451 3.5756 14.0303 4.02485 14.0303 4.49328C14.0303 4.5816 14.0303 4.66108 14.0303 4.74939C16.6403 5.52653 18.4243 7.93744 18.4243 10.6751V15.9738L20.1818 17.74ZM14.0303 19.5063C14.0303 19.9747 13.8451 20.424 13.5155 20.7552C13.1859 21.0864 12.7389 21.2725 12.2727 21.2725C11.8066 21.2725 11.3596 21.0864 11.0299 20.7552C10.7003 20.424 10.5152 19.9747 10.5152 19.5063" fill="#EA455F"/>
</svg>
