<svg width="121" height="121" viewBox="0 0 121 121" fill="none" xmlns="http://www.w3.org/2000/svg">
<path d="M105.5 55.9875V25.4375C105.5 19.9375 101.05 15.4375 95.5 15.4375H74.6C72.5 9.6375 67 5.4375 60.5 5.4375C54 5.4375 48.5 9.6375 46.4 15.4375H25.5C20 15.4375 15.5 19.9375 15.5 25.4375V95.4375C15.5 100.988 20 105.438 25.5 105.438H56.05C62.35 111.637 70.95 115.438 80.5 115.438C99.85 115.438 115.5 99.7875 115.5 80.4375C115.5 70.8875 111.7 62.2875 105.5 55.9875ZM60.5 15.4375C63.25 15.4375 65.5 17.6875 65.5 20.4375C65.5 23.1875 63.25 25.4375 60.5 25.4375C57.75 25.4375 55.5 23.1875 55.5 20.4375C55.5 17.6875 57.75 15.4375 60.5 15.4375ZM25.5 95.4375V25.4375H35.5V35.4375H85.5V25.4375H95.5V48.8375C90.95 46.6875 85.9 45.4375 80.5 45.4375H35.5V55.4375H56C53 58.2875 50.7 61.6875 48.9 65.4375H35.5V75.4375H45.9C45.65 77.0875 45.5 78.7375 45.5 80.4375C45.5 85.8375 46.75 90.8875 48.9 95.4375H25.5ZM80.5 105.438C66.7 105.438 55.5 94.2375 55.5 80.4375C55.5 66.6375 66.7 55.4375 80.5 55.4375C94.3 55.4375 105.5 66.6375 105.5 80.4375C105.5 94.2375 94.3 105.438 80.5 105.438ZM83 81.6875L97.3 90.1375L93.55 96.2375L75.5 85.4375V60.4375H83V81.6875Z" fill="#D9D9D9"/>
</svg>
