<svg width="120" height="120" viewBox="0 0 120 120" fill="none" xmlns="http://www.w3.org/2000/svg">
<path d="M36.0107 120C32.7097 120 29.8829 118.824 27.5302 116.472C25.1775 114.12 24.0031 111.296 24.0071 108C24.0071 104.7 25.1835 101.874 27.5362 99.522C29.8889 97.17 32.7137 95.996 36.0107 96C39.3117 96 42.1385 97.176 44.4912 99.528C46.8439 101.88 48.0183 104.704 48.0143 108C48.0143 111.3 46.8379 114.126 44.4852 116.478C42.1325 118.83 39.3077 120.004 36.0107 120ZM96.0286 120C92.7276 120 89.9007 118.824 87.548 116.472C85.1953 114.12 84.021 111.296 84.025 108C84.025 104.7 85.2013 101.874 87.554 99.522C89.9067 97.17 92.7316 95.996 96.0286 96C99.3295 96 102.156 97.176 104.509 99.528C106.862 101.88 108.036 104.704 108.032 108C108.032 111.3 106.856 114.126 104.503 116.478C102.15 118.83 99.3255 120.004 96.0286 120ZM30.9092 24L45.3135 54H87.326L103.831 24H30.9092ZM36.0107 90C31.5094 90 28.1084 88.024 25.8077 84.072C23.507 80.12 23.407 76.196 25.5076 72.3L33.61 57.6L12.0036 12H5.85174C4.15123 12 2.75082 11.424 1.65049 10.272C0.550163 9.12002 0 7.69602 0 6.00002C0 4.30002 0.576171 2.87402 1.72851 1.72202C2.88086 0.57002 4.30528 -0.00397924 6.00178 2.07613e-05H15.7547C16.855 2.07613e-05 17.9053 0.300021 18.9056 0.900021C19.9059 1.50002 20.6561 2.35002 21.1563 3.45002L25.2075 12H113.734C116.435 12 118.285 13 119.285 15C120.286 17 120.236 19.1 119.135 21.3L97.8291 59.7C96.7288 61.7 95.2783 63.25 93.4778 64.35C91.6773 65.45 89.6267 66 87.326 66H42.6127L36.0107 78H102.18C103.881 78 105.281 78.576 106.382 79.728C107.482 80.88 108.032 82.304 108.032 84C108.032 85.7 107.456 87.126 106.304 88.278C105.151 89.43 103.727 90.004 102.03 90H36.0107Z" fill="#D9D9D9"/>
</svg>
