<svg width="24" height="24" viewBox="0 0 24 24" fill="none" xmlns="http://www.w3.org/2000/svg">
<g clip-path="url(#clip0_8_409)">
<path d="M12.786 17.3636L9.62932 14.8215H9.6283L12.786 17.3636Z" fill="white"/>
<path d="M23.0438 1.62918L0.674321 10.0648C-0.177849 10.3865 -0.124589 11.6084 0.752164 11.8542L6.18065 13.3783L19.0841 5.51106C19.2777 5.39327 19.4774 5.65548 19.3104 5.81014L9.62826 14.8214L12.785 17.3636L12.9355 17.4855L18.0813 21.6296C18.9581 22.3691 20.307 21.8979 20.5323 20.7733L24.0486 2.48442C24.1653 1.90368 23.5969 1.42126 23.0428 1.6302L23.0438 1.62918Z" fill="white"/>
<path d="M12.786 17.3637L12.9366 17.4845L12.786 17.3637Z" fill="white"/>
</g>
<defs>
<clipPath id="clip0_8_409">
<rect width="24" height="24" fill="white"/>
</clipPath>
</defs>
</svg>
