<svg width="24" height="24" viewBox="0 0 24 24" fill="none" xmlns="http://www.w3.org/2000/svg">
<path d="M8.80135 19.5625C8.36122 19.5625 7.98431 19.4057 7.67061 19.0921C7.35692 18.7785 7.20034 18.402 7.20087 17.9625C7.20087 17.5225 7.35772 17.1457 7.67141 16.8321C7.98511 16.5185 8.36175 16.362 8.80135 16.3625C9.24148 16.3625 9.61839 16.5193 9.93209 16.8329C10.2458 17.1465 10.4024 17.523 10.4018 17.9625C10.4018 18.4025 10.245 18.7793 9.93129 19.0929C9.61759 19.4065 9.24095 19.563 8.80135 19.5625ZM16.8037 19.5625C16.3636 19.5625 15.9867 19.4057 15.673 19.0921C15.3593 18.7785 15.2027 18.402 15.2033 17.9625C15.2033 17.5225 15.3601 17.1457 15.6738 16.8321C15.9875 16.5185 16.3641 16.362 16.8037 16.3625C17.2439 16.3625 17.6208 16.5193 17.9345 16.8329C18.2482 17.1465 18.4047 17.523 18.4042 17.9625C18.4042 18.4025 18.2474 18.7793 17.9337 19.0929C17.62 19.4065 17.2433 19.563 16.8037 19.5625ZM8.12115 6.7625L10.0417 10.7625H15.6434L17.844 6.7625H8.12115ZM8.80135 15.5625C8.20117 15.5625 7.7477 15.299 7.44095 14.7721C7.13419 14.2452 7.12085 13.722 7.40093 13.2025L8.48125 11.2425L5.6004 5.1625H4.78015C4.55342 5.1625 4.3667 5.0857 4.21999 4.9321C4.07328 4.7785 3.99992 4.58864 3.99992 4.3625C3.99992 4.13584 4.07674 3.9457 4.23039 3.7921C4.38404 3.6385 4.57396 3.56197 4.80016 3.5625H6.10055C6.24726 3.5625 6.3873 3.6025 6.52067 3.6825C6.65404 3.7625 6.75407 3.87584 6.82076 4.0225L7.36092 5.1625H19.1644C19.5245 5.1625 19.7713 5.29584 19.9047 5.5625C20.038 5.82917 20.0314 6.10917 19.8846 6.4025L17.0438 11.5225C16.8971 11.7892 16.7037 11.9958 16.4636 12.1425C16.2236 12.2892 15.9501 12.3625 15.6434 12.3625H9.68161L8.80135 13.9625H17.624C17.8507 13.9625 18.0374 14.0393 18.1841 14.1929C18.3309 14.3465 18.4042 14.5364 18.4042 14.7625C18.4042 14.9892 18.3274 15.1793 18.1737 15.3329C18.0201 15.4865 17.8302 15.563 17.604 15.5625H8.80135Z" fill="#2B3467"/>
</svg>
